<svg width="300" height="300" viewBox="0 0 300 300" fill="none" xmlns="http://www.w3.org/2000/svg">
<rect width="300" height="300" rx="50" fill="#F5F7FA"/>
<path opacity="0.8" d="M274 166.457C274 189.16 255.595 207.565 232.891 207.565C210.188 207.565 191.783 189.16 191.783 166.457C191.783 143.753 201.217 134.783 232.891 93C262.544 134.783 274 143.753 274 166.457Z" fill="#91CFCC"/>
<path opacity="0.8" d="M218.739 166.457C218.739 189.16 200.032 207.565 176.957 207.565C153.881 207.565 135.174 189.16 135.174 166.457C135.174 143.753 144.763 134.783 176.957 93C207.095 134.783 218.739 143.753 218.739 166.457Z" fill="#56BDB9"/>
<path opacity="0.8" d="M164.826 166.457C164.826 189.16 146.119 207.565 123.043 207.565C99.9676 207.565 81.2609 189.16 81.2609 166.457C81.2609 143.753 90.8503 134.783 123.043 93C153.182 134.783 164.826 143.753 164.826 166.457Z" fill="#0DA5B0"/>
<path opacity="0.8" d="M108.217 166.457C108.217 189.16 89.8124 207.565 67.1087 207.565C44.405 207.565 26 189.16 26 166.457C26 143.753 35.4348 134.783 67.1087 93C96.7609 134.783 108.217 143.753 108.217 166.457Z" fill="#06618E"/>
<path d="M102.117 157.041H91.4424L91.4721 175.217H88.5365V154.461H102.147L102.117 157.041Z" fill="white"/>
<path d="M147.744 165.996L143.948 169.85V175.217H140.983V154.461H143.948V166.055L155.216 154.461H158.596L149.73 163.801L159.16 175.217H155.691L147.744 165.996Z" fill="white"/>
<path d="M205.525 175.455C203.449 175.455 201.571 175 199.891 174.091C198.231 173.162 196.926 171.896 195.977 170.295C195.028 168.674 194.554 166.856 194.554 164.839C194.554 162.823 195.028 161.014 195.977 159.413C196.926 157.792 198.241 156.527 199.921 155.617C201.601 154.688 203.479 154.224 205.555 154.224C207.176 154.224 208.658 154.5 210.003 155.054C211.347 155.588 212.493 156.388 213.442 157.456L211.515 159.324C209.953 157.683 208.006 156.863 205.673 156.863C204.131 156.863 202.738 157.209 201.492 157.901C200.247 158.592 199.268 159.551 198.557 160.777C197.865 161.983 197.519 163.337 197.519 164.839C197.519 166.342 197.865 167.706 198.557 168.931C199.268 170.137 200.247 171.086 201.492 171.778C202.738 172.47 204.131 172.816 205.673 172.816C207.986 172.816 209.933 171.985 211.515 170.325L213.442 172.193C212.493 173.26 211.337 174.071 209.973 174.624C208.629 175.178 207.146 175.455 205.525 175.455Z" fill="white"/>
</svg>
