<?xml version="1.0" standalone="no"?>
<!DOCTYPE svg PUBLIC "-//W3C//DTD SVG 20010904//EN"
 "http://www.w3.org/TR/2001/REC-SVG-20010904/DTD/svg10.dtd">
<svg version="1.0" xmlns="http://www.w3.org/2000/svg"
 width="700.000000pt" height="700.000000pt" viewBox="0 0 700.000000 700.000000"
 preserveAspectRatio="xMidYMid meet">
<metadata>
Created by potrace 1.14, written by Peter Selinger 2001-2017
</metadata>
<g transform="translate(0.000000,700.000000) scale(0.100000,-0.100000)"
fill="#000000" stroke="none">
<path d="M1415 4633 c-512 -672 -591 -784 -686 -978 -34 -69 -70 -163 -86
-220 -25 -92 -27 -115 -27 -295 0 -185 1 -200 27 -285 101 -329 337 -564 663
-660 167 -50 391 -45 563 11 82 27 204 92 276 147 l70 54 65 -50 c86 -65 244
-140 355 -169 75 -19 114 -23 240 -22 178 1 288 25 426 94 234 118 394 288
483 511 78 199 85 440 20 666 -52 180 -162 361 -439 725 -77 101 -218 289
-313 418 -96 129 -177 235 -182 235 -8 0 -490 -618 -602 -772 -49 -68 -64 -82
-73 -71 -15 15 -391 527 -525 713 -51 72 -96 133 -99 137 -4 4 -74 -81 -156
-189z m965 -1263 l0 -29 -122 -3 -123 -3 -3 -212 -2 -213 -30 0 -30 0 0 245 0
245 155 0 155 0 0 -30z m980 -105 l0 -135 133 136 c129 133 133 136 171 132
l38 -3 -102 -108 c-91 -95 -101 -109 -89 -125 7 -9 55 -67 106 -129 51 -62 93
-115 93 -118 0 -3 -18 -5 -39 -5 -37 0 -43 5 -127 103 -48 56 -89 104 -91 106
-2 3 -24 -15 -48 -39 -44 -43 -45 -46 -45 -107 l0 -63 -35 0 -35 0 0 245 0
245 35 0 35 0 0 -135z"/>
<path d="M4712 3852 c-176 -271 -241 -493 -229 -772 9 -196 66 -369 171 -513
52 -72 121 -147 135 -147 12 0 107 110 148 170 197 293 215 685 47 1023 -35
70 -199 337 -208 337 0 0 -29 -44 -64 -98z m205 -473 c53 -26 70 -45 57 -67
-22 -34 -38 -35 -79 -7 -36 24 -47 26 -106 23 -54 -3 -73 -9 -103 -31 -89 -69
-97 -188 -17 -268 65 -66 169 -74 238 -19 20 15 29 17 45 9 45 -24 32 -56 -36
-92 -58 -30 -184 -30 -241 0 -52 28 -100 78 -120 127 -20 48 -21 152 -2 198
56 133 227 193 364 127z"/>
</g>
</svg>
