<svg width="50" height="50" fill="none" xmlns="http://www.w3.org/2000/svg"><circle cx="25" cy="25" r="25" fill="#F5910A"/><g clip-path="url(#clip0_608_3099)" fill="#fff"><path d="M25.463 35.007l-.61-.523c-.841-.704-8.183-7.045-8.183-11.683a8.793 8.793 0 1117.586 0c0 4.638-7.342 10.98-8.18 11.687l-.613.519zm0-19.098a6.9 6.9 0 00-6.892 6.892c0 2.914 4.517 7.569 6.892 9.7 2.374-2.132 6.891-6.79 6.891-9.7a6.9 6.9 0 00-6.891-6.892z"/><path d="M25.462 26.286a3.485 3.485 0 110-6.97 3.485 3.485 0 010 6.97zm0-5.228a1.743 1.743 0 100 3.486 1.743 1.743 0 000-3.486z"/></g><defs><clipPath id="clip0_608_3099"><path fill="#fff" transform="translate(15 14)" d="M0 0h21v21H0z"/></clipPath></defs></svg>