<?xml version="1.0" encoding="utf-8"?><svg xmlns="http://www.w3.org/2000/svg" xmlns:xlink="http://www.w3.org/1999/xlink"><symbol viewBox="0 0 20 40" id="arrow-left" xmlns="http://www.w3.org/2000/svg"><path d="M2.4 20L19.694 1.7c.2-.2.3-.4.3-.7 0-.6-.4-1-1-1-.3 0-.5.1-.7.3L.3 19.3c-.2.2-.3.4-.3.7 0 .3.1.5.3.7l17.995 19c.2.2.4.3.7.3.6 0 1-.4 1-1 0-.3-.1-.5-.3-.7L2.399 20z"/></symbol><symbol viewBox="0 0 20 40" id="arrow-right" xmlns="http://www.w3.org/2000/svg"><path d="M17.595 20L.3 1.7C.1 1.5 0 1.3 0 1c0-.6.4-1 1-1 .3 0 .5.1.7.3l17.995 19c.2.2.3.4.3.7 0 .3-.1.5-.3.7L1.7 39.7c-.2.2-.4.3-.7.3-.6 0-1-.4-1-1 0-.3.1-.5.3-.7L17.595 20z"/></symbol><symbol viewBox="0 0 30 30" id="delete" xmlns="http://www.w3.org/2000/svg"><path d="M19.8 27.813h-9.6a3.813 3.813 0 01-3.75-3.575l-1.138-17.3a.95.95 0 01.561-.914.963.963 0 01.376-.086h17.5a.938.938 0 01.938 1l-1.088 17.3a3.813 3.813 0 01-3.8 3.575zm-12.5-20l.962 16.312a1.937 1.937 0 001.937 1.813h9.6a1.95 1.95 0 001.938-1.813l1.012-16.25L7.3 7.813z"/><path d="M26.25 7.813H3.75a.937.937 0 110-1.875h22.5a.937.937 0 010 1.875z"/><path d="M18.75 7.813h-7.5a.95.95 0 01-.938-.938v-2.25a2.5 2.5 0 012.438-2.437h4.5a2.5 2.5 0 012.438 2.5v2.187a.95.95 0 01-.938.938zm-6.563-1.875h5.626v-1.25a.563.563 0 00-.563-.563h-4.5a.562.562 0 00-.563.563v1.25zm6.563 16.875a.95.95 0 01-.938-.938v-10a.938.938 0 011.875 0v10a.95.95 0 01-.937.938zm-7.5 0a.95.95 0 01-.938-.938v-10a.938.938 0 011.876 0v10a.95.95 0 01-.938.938zm3.75 0a.95.95 0 01-.938-.938v-10a.938.938 0 011.876 0v10a.95.95 0 01-.938.938z"/></symbol><symbol viewBox="0 0 29 30" id="download" xmlns="http://www.w3.org/2000/svg"><path fill-rule="evenodd" clip-rule="evenodd" d="M5.379 19.64c.64 0 1.16.52 1.16 1.16v2.32a1.16 1.16 0 001.16 1.16h13.92a1.16 1.16 0 001.16-1.16V20.8a1.16 1.16 0 012.32 0v2.32a3.48 3.48 0 01-3.48 3.48H7.699a3.48 3.48 0 01-3.48-3.48V20.8c0-.64.52-1.16 1.16-1.16z"/><path fill-rule="evenodd" clip-rule="evenodd" d="M8.039 13.02a1.16 1.16 0 011.64 0L14.66 18l4.98-4.98a1.16 1.16 0 111.64 1.64l-5.8 5.8a1.16 1.16 0 01-1.64 0l-5.8-5.8a1.16 1.16 0 010-1.64z"/><path fill-rule="evenodd" clip-rule="evenodd" d="M14.659 4.56c.64 0 1.16.52 1.16 1.16v13.92a1.16 1.16 0 11-2.32 0V5.72c0-.64.52-1.16 1.16-1.16z"/></symbol><symbol viewBox="0 0 18 18" id="marker" xmlns="http://www.w3.org/2000/svg"><g opacity=".5" clip-path="url(#ea)"><path d="M8.969 18.006l-.523-.448c-.721-.604-7.014-6.039-7.014-10.014a7.537 7.537 0 0115.073 0c0 3.975-6.293 9.41-7.01 10.017l-.526.445zm0-16.37A5.914 5.914 0 003.06 7.545c0 2.497 3.872 6.487 5.908 8.313 2.035-1.827 5.907-5.819 5.907-8.313a5.914 5.914 0 00-5.907-5.907z"/><path d="M8.968 10.531a2.988 2.988 0 110-5.975 2.988 2.988 0 010 5.975zm0-4.481a1.494 1.494 0 100 2.987 1.494 1.494 0 000-2.987z"/></g><defs><clipPath id="ea"><path d="M0 0h18v18H0z"/></clipPath></defs></symbol><symbol viewBox="0 0 21 22" id="pin" xmlns="http://www.w3.org/2000/svg"><g clip-path="url(#fa)"><path d="M10.463 21.507l-.61-.523C9.013 20.28 1.67 13.94 1.67 9.301a8.793 8.793 0 0117.586 0c0 4.638-7.342 10.98-8.18 11.687l-.613.519zm0-19.098a6.9 6.9 0 00-6.891 6.892c0 2.914 4.517 7.569 6.891 9.7 2.375-2.132 6.892-6.79 6.892-9.7a6.9 6.9 0 00-6.892-6.892z"/><path d="M10.463 12.786a3.485 3.485 0 110-6.97 3.485 3.485 0 010 6.97zm0-5.228a1.743 1.743 0 100 3.486 1.743 1.743 0 000-3.486z"/></g><defs><clipPath id="fa"><path transform="translate(0 .5)" d="M0 0h21v21H0z"/></clipPath></defs></symbol><symbol viewBox="0 0 18 18" id="plus" xmlns="http://www.w3.org/2000/svg"><path fill-rule="evenodd" clip-rule="evenodd" d="M9 0c.621 0 1.125.504 1.125 1.125v15.75a1.125 1.125 0 01-2.25 0V1.125C7.875.504 8.379 0 9 0z"/><path fill-rule="evenodd" clip-rule="evenodd" d="M0 9c0-.621.504-1.125 1.125-1.125h15.75a1.125 1.125 0 010 2.25H1.125A1.125 1.125 0 010 9z"/></symbol><symbol viewBox="0 0 19 18" id="search" xmlns="http://www.w3.org/2000/svg"><path d="M17.982 16.01l-3.378-3.378a7.676 7.676 0 001.585-4.681 7.688 7.688 0 00-2.267-5.473A7.689 7.689 0 008.449.211a7.69 7.69 0 00-5.473 2.267c-3.017 3.018-3.017 7.928 0 10.946A7.689 7.689 0 008.45 15.69a7.677 7.677 0 004.682-1.586l3.378 3.379a1.038 1.038 0 001.473 0 1.041 1.041 0 000-1.473zM4.449 11.95a5.663 5.663 0 010-7.999 5.62 5.62 0 014-1.656 5.62 5.62 0 014 1.656 5.62 5.62 0 011.657 4 5.62 5.62 0 01-1.657 4 5.619 5.619 0 01-4 1.657 5.62 5.62 0 01-4-1.657z"/></symbol><symbol viewBox="0 0 20 21" id="trophy" xmlns="http://www.w3.org/2000/svg"><g clip-path="url(#ia)"><path d="M14.583 10.5a.417.417 0 010-.833A4.172 4.172 0 0018.75 5.5V2.167H15a.417.417 0 010-.834h4.167c.23 0 .416.187.416.417V5.5a5.006 5.006 0 01-5 5zm-9.166 0a5.006 5.006 0 01-5-5V1.75c0-.23.186-.417.416-.417H5a.417.417 0 010 .834H1.25V5.5a4.172 4.172 0 004.167 4.167.417.417 0 010 .833zm7.189 6.607l-.224-.23c-.874-.899-1.114-3.41-1.132-4.302a.417.417 0 00-.417-.408H9.167a.417.417 0 00-.417.407c-.018.892-.258 3.402-1.132 4.302l-.224.23c-1.144 1.177-1.977 2.028-1.977 2.977 0 .23.186.417.416.417h8.334c.23 0 .416-.186.416-.417 0-.949-.833-1.8-1.977-2.976z"/><path d="M15 .5H5a.417.417 0 00-.417.417v6.666A5.49 5.49 0 0010 13a5.49 5.49 0 005.417-5.417V.917A.417.417 0 0015 .5z"/></g><defs><clipPath id="ia"><path transform="translate(0 .5)" d="M0 0h20v20H0z"/></clipPath></defs></symbol><symbol viewBox="0 0 24 24" id="up" xmlns="http://www.w3.org/2000/svg"><path d="M4 15l8-8 8 8-2 2-6-6-6 6z" fill-rule="evenodd"/></symbol></svg>