<svg width="150" height="50" fill="none" xmlns="http://www.w3.org/2000/svg"><path d="M43.133 42.64a24.813 24.813 0 007.348-17.639 1.543 1.543 0 00-.465-1.085 1.575 1.575 0 00-2.203 0c-.294.287-.46.677-.466 1.085a21.749 21.749 0 01-6.443 15.457 21.54 21.54 0 01-7.053 4.764 21.726 21.726 0 01-16.74 0 21.543 21.543 0 01-7.053-4.764A21.81 21.81 0 013.615 25a21.81 21.81 0 016.443-15.458 21.586 21.586 0 017.003-4.739 21.77 21.77 0 018.307-1.7 2.35 2.35 0 011.611.708 2.301 2.301 0 01-.019 3.231 2.35 2.35 0 01-1.62.689c-.056 0-.112.003-.168.01a16.926 16.926 0 00-11.505 5.01A16.971 16.971 0 008.66 24.773c0 4.505 1.8 8.827 5.008 12.023a16.833 16.833 0 005.508 3.714 16.98 16.98 0 0013.065 0 16.835 16.835 0 005.508-3.714 16.915 16.915 0 005.008-12.023 5.326 5.326 0 00-.399-2.072 5.371 5.371 0 00-1.174-1.76 5.434 5.434 0 00-1.767-1.177 5.478 5.478 0 00-5.947 1.177 5.328 5.328 0 00-1.573 3.832c0 .045.003.088.007.131a1.58 1.58 0 00-.007.131 6.199 6.199 0 01-1.038 3.484 6.297 6.297 0 01-2.822 2.323 6.375 6.375 0 01-3.65.377 6.334 6.334 0 01-3.246-1.698 6.227 6.227 0 01-1.742-3.197 6.186 6.186 0 01.35-3.616 6.26 6.26 0 012.325-2.812 6.36 6.36 0 013.512-1.056 1.581 1.581 0 001.12-.448 1.549 1.549 0 00.466-1.103 1.534 1.534 0 00-.466-1.103 1.568 1.568 0 00-1.12-.448 9.463 9.463 0 00-5.205 1.592 9.317 9.317 0 00-3.438 4.183 9.208 9.208 0 00-.513 5.368 9.268 9.268 0 002.583 4.747 9.428 9.428 0 004.811 2.53 9.487 9.487 0 005.421-.538 9.374 9.374 0 004.208-3.425 9.23 9.23 0 001.58-5.16c0-.045-.004-.088-.007-.13.003-.044.006-.088.006-.132a2.248 2.248 0 01.656-1.636 2.297 2.297 0 011.64-.682 2.319 2.319 0 011.64.682 2.269 2.269 0 01.656 1.636 13.849 13.849 0 01-4.103 9.842 13.698 13.698 0 01-4.487 3.032 13.815 13.815 0 01-10.65 0 13.698 13.698 0 01-4.486-3.032 13.886 13.886 0 01-4.103-9.842c0-3.689 1.475-7.227 4.103-9.843a13.73 13.73 0 014.487-3.03 13.847 13.847 0 015.323-1.069c.14 0 .28-.02.416-.057a5.49 5.49 0 003.402-1.917 5.384 5.384 0 001.24-3.675 5.393 5.393 0 00-1.557-3.555A5.502 5.502 0 0025.481 0h-.14l-.046.002a24.908 24.908 0 00-9.476 1.952A24.697 24.697 0 007.83 7.36 24.895 24.895 0 00.481 25c0 6.608 2.642 12.95 7.35 17.638a24.674 24.674 0 008.073 5.445 24.887 24.887 0 0019.155 0 24.675 24.675 0 008.074-5.445v.001zm39.072-2.541c-.98 0-1.582-.504-1.806-1.512l-1.05-5.04c-.224-1.008-.826-1.512-1.806-1.512h-6.342c-.98 0-1.582.504-1.806 1.512l-1.05 5.04c-.224 1.008-.826 1.512-1.806 1.512h-.504c-.504 0-.896-.126-1.176-.378-.252-.252-.378-.588-.378-1.008 0-.196.014-.35.042-.462l5.334-26.796c.224-1.008.826-1.512 1.806-1.512h5.292c.98 0 1.582.504 1.806 1.512l5.46 26.796c.028.112.042.28.042.504 0 .896-.518 1.344-1.554 1.344h-.504zM74.31 13.765c-.616 0-1.036.504-1.26 1.512l-2.226 11.13a1.993 1.993 0 00-.042.462c0 .42.126.756.378 1.008.28.252.672.378 1.176.378h4.032c1.036 0 1.554-.448 1.554-1.344 0-.224-.014-.392-.042-.504l-2.31-11.13c-.224-1.008-.644-1.512-1.26-1.512zm13.324-2.185c0-1.12.56-1.68 1.68-1.68h.42c1.12 0 1.68.56 1.68 1.68v26.84c0 1.12-.56 1.68-1.68 1.68h-.42c-1.12 0-1.68-.56-1.68-1.68V11.58zm7.158 9.45c0-.531.126-.937.378-1.217.28-.308.658-.462 1.134-.462.476 0 .84-.14 1.092-.42.28-.308.42-.728.42-1.26v-3.486c0-.812.28-1.512.84-2.1L100 10.74c.56-.56 1.246-.84 2.058-.84h1.68c1.12 0 1.68.56 1.68 1.68v.462c0 1.12-.56 1.68-1.68 1.68h-.462c-1.12 0-1.68.56-1.68 1.68v2.268c0 1.12.56 1.68 1.68 1.68h.462c1.12 0 1.68.56 1.68 1.68v.462c0 1.12-.56 1.68-1.68 1.68h-.462c-1.12 0-1.68.56-1.68 1.68v13.524c0 1.12-.56 1.68-1.68 1.68h-.42c-1.12 0-1.68-.56-1.68-1.68V24.853c0-.532-.14-.938-.42-1.218-.252-.308-.616-.462-1.092-.462-.476 0-.854-.14-1.134-.42-.252-.308-.378-.728-.378-1.26v-.462zm17.797 17.347c0 1.12-.56 1.68-1.68 1.68h-.462c-1.12 0-1.68-.56-1.68-1.68V23.635c0-.812.28-1.498.84-2.058l1.386-1.386c.56-.56 1.246-.84 2.058-.84h.756c1.12 0 1.68.56 1.68 1.68v.462c0 1.12-.476 1.68-1.428 1.68-.476 0-.84.154-1.092.462-.252.28-.378.686-.378 1.218v13.524zm19.088-7.77c0 1.12-.56 1.68-1.68 1.68h-6.468c-1.12 0-1.68.56-1.68 1.68v.588c0 1.12.56 1.68 1.68 1.68h6.468c1.12 0 1.68.56 1.68 1.68v.462c0 1.12-.56 1.68-1.68 1.68h-7.728a2.732 2.732 0 01-2.058-.882l-1.344-1.344c-.56-.56-.84-1.246-.84-2.058v-12.18c0-.812.28-1.498.84-2.058l1.344-1.344c.56-.56 1.246-.84 2.058-.84h5.166c.812 0 1.498.28 2.058.84l1.344 1.344c.56.56.84 1.246.84 2.058v7.014zm-9.828-3.36c0 1.12.56 1.68 1.68 1.68h2.646c1.12 0 1.68-.56 1.68-1.68V24.81c0-1.12-.56-1.68-1.68-1.68h-2.646c-1.12 0-1.68.56-1.68 1.68v2.436zm16.203-7.057c.56-.56 1.26-.84 2.1-.84h3.864c1.12 0 1.68-.56 1.68-1.68v-6.047c0-1.12.56-1.68 1.68-1.68h.462c1.12 0 1.68.56 1.68 1.68v26.796c0 1.12-.56 1.68-1.68 1.68h-7.686c-.812 0-1.498-.28-2.058-.84l-1.386-1.386c-.56-.56-.84-1.246-.84-2.058V23.593c0-.812.28-1.498.84-2.058l1.344-1.344zm1.638 14.407c0 1.12.56 1.68 1.68 1.68h2.646c1.12 0 1.68-.56 1.68-1.68v-9.744c0-1.12-.56-1.68-1.68-1.68h-2.646c-1.12 0-1.68.56-1.68 1.68v9.744z" fill="#BDBDBD"/></svg>