<svg width="178" height="50" fill="none" xmlns="http://www.w3.org/2000/svg"><path d="M43.506 7.324A25 25 0 108.148 42.677 25 25 0 0043.506 7.324zM7.347 16.54A20.625 20.625 0 0138.28 8.335c-6.136-.58-13.818 2.557-20.045 8.773a33.757 33.757 0 00-5.91 7.954 29.102 29.102 0 01-4.977-8.522zm13.784 29A20.647 20.647 0 015.938 23.46c2.58 5.602 9.091 10.693 17.637 12.966a33.13 33.13 0 009.795 1.136 29.25 29.25 0 01-4.852 8.557 20.445 20.445 0 01-7.387-.602v.023zm15.557-23.762a33.765 33.765 0 00-3.886-9.09 29.182 29.182 0 019.83-.069 20.327 20.327 0 013.17 6.694 20.648 20.648 0 01-11.523 24.204c3.546-5.011 4.682-13.227 2.41-21.739zm44.729.219a2.94 2.94 0 01-.84 2.1c-.336.336-.504.686-.504 1.05 0 .336.14.644.42.924l.084.084c.56.56.84 1.26.84 2.1v7.518a2.94 2.94 0 01-.84 2.1l-1.344 1.344c-.56.56-1.246.84-2.058.84H66.507c-1.12 0-1.68-.56-1.68-1.68V11.58c0-1.12.56-1.68 1.68-1.68h10.668c.812 0 1.498.294 2.058.882l1.344 1.344c.56.56.84 1.246.84 2.058v7.812zM70.33 13.723c-1.12 0-1.68.56-1.68 1.68v6.132c0 1.12.56 1.68 1.68 1.68h5.586c1.12 0 1.68-.56 1.68-1.68l.042-6.132c0-1.12-.56-1.68-1.68-1.68H70.33zm7.308 14.994c0-1.12-.56-1.68-1.68-1.68H70.33c-1.12 0-1.68.56-1.68 1.68v5.838c0 1.12.56 1.68 1.68 1.68h5.628c1.12 0 1.68-.56 1.68-1.68v-5.838zm12.268 11.298c-.812 0-1.498-.28-2.058-.84l-1.386-1.386c-.56-.56-.84-1.246-.84-2.058v-4.872c0-.42.07-.784.21-1.092.14-.336.364-.658.672-.966l1.344-1.344c.56-.56 1.246-.84 2.058-.84h3.99c1.12 0 1.68-.56 1.68-1.68v-.126c0-1.12-.56-1.68-1.68-1.68h-6.468c-1.12 0-1.68-.56-1.68-1.68v-.462c0-1.12.56-1.68 1.68-1.68h7.686c.812 0 1.498.28 2.058.84l1.386 1.386c.56.56.84 1.246.84 2.058v14.742c0 1.12-.56 1.68-1.68 1.68h-7.812zm5.67-8.274c0-1.12-.56-1.68-1.68-1.68h-2.772c-1.12 0-1.68.56-1.68 1.68v3.15c0 1.12.56 1.68 1.68 1.68h2.772c1.12 0 1.68-.56 1.68-1.68v-3.15zm20.012-6.426c-.532 0-.952-.098-1.26-.294-.28-.196-.42-.476-.42-.84 0-.336-.154-.602-.462-.798-.28-.196-.686-.294-1.218-.294h-2.688c-1.12 0-1.68.56-1.68 1.68v1.722c0 1.12.56 1.68 1.68 1.68h3.906c.812 0 1.498.28 2.058.84l1.386 1.386c.56.56.84 1.246.84 2.058v3.318c0 .812-.28 1.498-.84 2.058l-1.386 1.386c-.56.56-1.246.84-2.058.84h-5.124c-.812 0-1.498-.28-2.058-.84l-1.386-1.386c-.56-.56-.84-1.246-.84-2.058v-.042c0-1.12.56-1.68 1.68-1.68h.462c.532 0 .938.098 1.218.294.308.196.462.462.462.798s.14.602.42.798c.308.196.728.294 1.26.294h2.688c1.12 0 1.68-.56 1.68-1.68v-1.26c0-1.12-.56-1.68-1.68-1.68h-3.948c-.42 0-.784-.056-1.092-.168-.308-.14-.63-.35-.966-.63l-1.26-1.092c-.336-.28-.574-.574-.714-.882-.14-.336-.21-.728-.21-1.176V23.55c0-.42.07-.784.21-1.092.14-.336.364-.658.672-.966l1.344-1.344c.56-.56 1.246-.84 2.058-.84h5.124c.84 0 1.54.28 2.1.84l1.344 1.344c.56.56.84 1.246.84 2.058v.084c0 1.12-.56 1.68-1.68 1.68h-.462zm15.993 10.92c1.12 0 1.68.56 1.68 1.68v.462c0 1.12-.56 1.68-1.68 1.68h-2.898c-.812 0-1.498-.28-2.058-.84l-1.386-1.386c-.56-.56-.84-1.246-.84-2.058V24.769c0-.532-.14-.938-.42-1.218-.28-.308-.686-.462-1.218-.462-1.12 0-1.68-.56-1.68-1.68v-.42c0-.532.14-.938.42-1.218.308-.308.728-.462 1.26-.462s.938-.14 1.218-.42c.28-.308.42-.728.42-1.26v-1.512c0-1.12.56-1.68 1.68-1.68h.462c1.12 0 1.68.56 1.68 1.68v1.512c0 1.12.56 1.68 1.68 1.68h1.68c1.12 0 1.68.56 1.68 1.68v.42c0 1.12-.56 1.68-1.68 1.68h-1.68c-1.12 0-1.68.56-1.68 1.68v9.786c0 1.12.56 1.68 1.68 1.68h1.68zm5.663-22.47c.42-.42.854-.63 1.302-.63.448 0 .882.21 1.302.63.42.42.63.854.63 1.302 0 .448-.21.882-.63 1.302-.42.42-.854.63-1.302.63-.448 0-.882-.21-1.302-.63-.42-.42-.63-.854-.63-1.302 0-.448.21-.882.63-1.302zm-.588 7.224c0-1.12.56-1.68 1.68-1.68h.42c1.12 0 1.68.56 1.68 1.68v17.388c0 1.12-.56 1.68-1.68 1.68h-.42c-1.12 0-1.68-.56-1.68-1.68V20.989zm21.333.504c.56.588.84 1.288.84 2.1v12.18a2.94 2.94 0 01-.84 2.1l-1.344 1.344c-.56.56-1.246.84-2.058.84h-5.208c-.812 0-1.498-.28-2.058-.84l-1.386-1.386c-.56-.56-.84-1.246-.84-2.058v-12.18c0-.812.28-1.498.84-2.058l1.386-1.386c.56-.56 1.246-.84 2.058-.84h5.208c.812 0 1.498.28 2.058.84l1.344 1.344zm-2.982 3.318c0-1.12-.56-1.68-1.68-1.68h-2.73c-1.12 0-1.68.56-1.68 1.68v9.744c0 1.12.56 1.68 1.68 1.68h2.73c1.12 0 1.68-.56 1.68-1.68V24.81zm12.254 13.608c0 1.12-.56 1.68-1.68 1.68h-.462c-1.12 0-1.68-.56-1.68-1.68V23.593c0-.812.28-1.498.84-2.058l1.386-1.386c.56-.56 1.246-.84 2.058-.84h5.208c.812 0 1.498.294 2.058.882l1.344 1.344c.56.56.84 1.246.84 2.058v14.826c0 1.12-.56 1.68-1.68 1.68h-.42c-1.12 0-1.68-.56-1.68-1.68V24.81c0-1.12-.56-1.68-1.68-1.68h-2.772c-1.12 0-1.68.56-1.68 1.68v13.608z" fill="#BDBDBD"/></svg>