<svg width="162" height="50" fill="none" xmlns="http://www.w3.org/2000/svg"><path fill-rule="evenodd" clip-rule="evenodd" d="M25.151 4.684v9.442l-7.786 4.705-7.839-4.737v-9.41L17.365 0l7.786 4.684zm-7.786-2.65L11.177 5.76v7.354l6.188 3.682 6.095-3.65V5.76l-6.095-3.725zM16.4 20.3l-7.807-4.716L.776 20.3v9.41l7.818 4.706 7.807-4.706V20.3zm-1.68 8.398l-6.127 3.683-6.126-3.683v-7.386l6.126-3.693 6.126 3.693v7.386zm18.555-8.409l-7.505-4.705-7.495 4.706v9.41l7.495 4.716 7.505-4.716v-9.41zm1.875.011l7.808-4.716 7.817 4.716v9.41l-7.817 4.706-7.808-4.706V20.3zm7.808 12.08l6.126-3.682v-7.386L42.96 17.62l-6.127 3.693v7.386l6.127 3.683zM9.526 35.886v9.41L17.354 50l7.797-4.705v-9.41l-7.797-4.716-7.828 4.716zm13.916 8.43l-6.088 3.65-6.18-3.65v-7.418l6.18-3.693 6.108 3.693-.02 7.418z" fill="#BDBDBD"/><path d="M79.266 21.598c-1.12 0-1.68-.56-1.68-1.68v-4.536c0-1.12-.56-1.68-1.68-1.68h-5.628c-1.12 0-1.68.56-1.68 1.68v19.194c0 1.12.56 1.68 1.68 1.68h5.628c1.12 0 1.68-.56 1.68-1.68V30.46c0-1.12.56-1.68 1.68-1.68h.462c1.12 0 1.68.56 1.68 1.68v5.334c0 .812-.28 1.498-.84 2.058l-1.386 1.386c-.56.56-1.246.84-2.058.84H69.06c-.812 0-1.498-.28-2.058-.84l-1.386-1.386c-.56-.56-.84-1.246-.84-2.058v-21.63c0-.812.28-1.498.84-2.058l1.386-1.386c.56-.56 1.246-.84 2.058-.84h8.064c.812 0 1.498.28 2.058.84l1.386 1.386c.56.56.84 1.246.84 2.058v5.754c0 1.12-.56 1.68-1.68 1.68h-.462zm8.026 18.522c-1.12 0-1.68-.56-1.68-1.68V11.686c0-1.12.56-1.68 1.68-1.68h.462c1.12 0 1.68.56 1.68 1.68v5.964c0 1.12.56 1.68 1.68 1.68h3.864c.812 0 1.498.28 2.058.84l1.386 1.386c.56.56.84 1.246.84 2.058V38.44c0 1.12-.56 1.68-1.68 1.68h-.462c-1.12 0-1.68-.56-1.68-1.68V24.832c0-1.12-.56-1.68-1.68-1.68h-2.646c-1.12 0-1.68.56-1.68 1.68V38.44c0 1.12-.56 1.68-1.68 1.68h-.462zm20.856-.084c-.812 0-1.498-.28-2.058-.84l-1.386-1.386c-.56-.56-.84-1.246-.84-2.058V30.88c0-.42.07-.784.21-1.092.14-.336.364-.658.672-.966l1.344-1.344c.56-.56 1.246-.84 2.058-.84h3.99c1.12 0 1.68-.56 1.68-1.68v-.126c0-1.12-.56-1.68-1.68-1.68h-6.468c-1.12 0-1.68-.56-1.68-1.68v-.462c0-1.12.56-1.68 1.68-1.68h7.686c.812 0 1.498.28 2.058.84l1.386 1.386c.56.56.84 1.246.84 2.058v14.742c0 1.12-.56 1.68-1.68 1.68h-7.812zm5.67-8.274c0-1.12-.56-1.68-1.68-1.68h-2.772c-1.12 0-1.68.56-1.68 1.68v3.15c0 1.12.56 1.68 1.68 1.68h2.772c1.12 0 1.68-.56 1.68-1.68v-3.15zm12.704 6.594c0 1.12-.56 1.68-1.68 1.68h-.462c-1.12 0-1.68-.56-1.68-1.68V23.614c0-.812.28-1.498.84-2.058l1.386-1.386c.56-.56 1.246-.84 2.058-.84h.756c1.12 0 1.68.56 1.68 1.68v.462c0 1.12-.476 1.68-1.428 1.68-.476 0-.84.154-1.092.462-.252.28-.378.686-.378 1.218v13.524zm18.332-16.842c.56.588.84 1.288.84 2.1v12.18a2.94 2.94 0 01-.84 2.1l-1.344 1.344c-.56.56-1.246.84-2.058.84h-5.208c-.812 0-1.498-.28-2.058-.84l-1.386-1.386c-.56-.56-.84-1.246-.84-2.058v-12.18c0-.812.28-1.498.84-2.058l1.386-1.386c.56-.56 1.246-.84 2.058-.84h5.208c.812 0 1.498.28 2.058.84l1.344 1.344zm-2.982 3.318c0-1.12-.56-1.68-1.68-1.68h-2.73c-1.12 0-1.68.56-1.68 1.68v9.744c0 1.12.56 1.68 1.68 1.68h2.73c1.12 0 1.68-.56 1.68-1.68v-9.744zm17.672 11.424c1.12 0 1.68.56 1.68 1.68v.462c0 1.12-.56 1.68-1.68 1.68h-2.898c-.812 0-1.498-.28-2.058-.84l-1.386-1.386c-.56-.56-.84-1.246-.84-2.058V24.79c0-.532-.14-.938-.42-1.218-.28-.308-.686-.462-1.218-.462-1.12 0-1.68-.56-1.68-1.68v-.42c0-.532.14-.938.42-1.218.308-.308.728-.462 1.26-.462s.938-.14 1.218-.42c.28-.308.42-.728.42-1.26v-1.512c0-1.12.56-1.68 1.68-1.68h.462c1.12 0 1.68.56 1.68 1.68v1.512c0 1.12.56 1.68 1.68 1.68h1.68c1.12 0 1.68.56 1.68 1.68v.42c0 1.12-.56 1.68-1.68 1.68h-1.68c-1.12 0-1.68.56-1.68 1.68v9.786c0 1.12.56 1.68 1.68 1.68h1.68z" fill="#BDBDBD"/></svg>