<svg width="488" height="474" fill="none" xmlns="http://www.w3.org/2000/svg"><g clip-path="url(#clip0_608_3257)"><path d="M179.003 107.916c0 1.383-1.108 2.629-2.63 2.629-1.385 0-2.631-1.107-2.631-2.629 0-1.384 1.108-2.629 2.631-2.629 1.522 0 2.63 1.107 2.63 2.629zM1.8 207.254a1.8 1.8 0 10.001-3.598 1.8 1.8 0 00-.001 3.598zM303.736 474a2.63 2.63 0 100-5.257 2.63 2.63 0 00-2.631 2.628 2.63 2.63 0 002.631 2.629zm62.989-106.394a1.8 1.8 0 10.001-3.599 1.8 1.8 0 00-.001 3.599zM488.002 38.74c0 .968-.831 1.798-1.8 1.798-.969 0-1.8-.83-1.8-1.799 0-.968.831-1.798 1.8-1.798.969 0 1.8.691 1.8 1.798zM139.963 1.799c0 .968-.831 1.798-1.8 1.798-.969 0-1.8-.83-1.8-1.798 0-.969.831-1.799 1.8-1.799.969 0 1.8.83 1.8 1.799zm145.36 95.879a1.8 1.8 0 10.001-3.599 1.8 1.8 0 00-.001 3.599z" opacity=".3" fill="#066190"/><path d="M96.353 97.678c16.745 0 30.319-13.566 30.319-30.3s-13.574-30.3-30.319-30.3c-16.744 0-30.318 13.566-30.318 30.3s13.574 30.3 30.319 30.3z" fill="#066190"/><path opacity=".7" d="M96.353 97.678c16.745 0 30.319-13.566 30.319-30.3s-13.574-30.3-30.319-30.3c-16.744 0-30.318 13.566-30.318 30.3s13.574 30.3 30.319 30.3z" fill="#fff"/><path opacity=".2" d="M85.832 44.55c-4.292 0-8.306.83-11.906 2.49-4.984 5.396-7.89 12.59-7.89 20.477 0 16.74 13.566 30.3 30.317 30.3 4.292 0 8.307-.831 12.045-2.491 4.845-5.396 7.891-12.59 7.891-20.338 0-16.88-13.706-30.438-30.457-30.438z" fill="#066190"/><path opacity=".2" d="M82.924 52.574a2.776 2.776 0 01-2.769 2.768 2.776 2.776 0 01-2.768-2.768 2.776 2.776 0 012.769-2.767 2.776 2.776 0 012.768 2.767zm32.535-2.767a2.775 2.775 0 01-2.768 2.767 2.776 2.776 0 01-2.769-2.767 2.776 2.776 0 012.769-2.767 2.775 2.775 0 012.768 2.767zm-5.537 19.785c0 2.49-2.076 4.566-4.568 4.566-2.492 0-4.569-2.076-4.569-4.566 0-2.49 2.077-4.566 4.569-4.566s4.568 2.076 4.568 4.566zm-14.4 12.867c0 3.32-2.768 6.087-6.09 6.087-3.323 0-6.092-2.767-6.092-6.087s2.769-6.088 6.091-6.088c3.323 0 6.091 2.767 6.091 6.088z" fill="#066190"/><path d="M455.797 433.054c3.374-14.278-5.473-28.585-19.759-31.957-14.287-3.371-28.603 5.47-31.977 19.748-3.373 14.278 5.474 28.585 19.76 31.956 14.287 3.372 28.603-5.47 31.976-19.747z" fill="#066190"/><path opacity=".3" d="M455.797 433.054c3.374-14.278-5.473-28.585-19.759-31.957-14.287-3.371-28.603 5.47-31.977 19.748-3.373 14.278 5.474 28.585 19.76 31.956 14.287 3.372 28.603-5.47 31.976-19.747z" fill="#fff"/><path opacity=".4" d="M446.745 406.345a27.353 27.353 0 00-7.614-1.107c-14.674 0-26.58 11.899-26.58 26.564 0 8.301 3.876 15.772 9.829 20.615a27.359 27.359 0 007.614 1.107c14.675 0 26.581-11.899 26.581-26.564 0-8.301-3.877-15.773-9.83-20.615z" fill="#066190"/><path d="M404.52 434.846c-28.381 13.42-7.199 23.658 32.81 9.27 37.102-13.282 51.223-30.162 18.135-24.904 1.662 7.056-44.854 25.18-50.945 15.634z" fill="#066190"/><path d="M253.899 415.891c-23.535 0-46.793-10.653-58.145-27.947-7.061-10.653-15.09-33.205 9.137-63.089l2.215 1.798c-17.167 21.168-20.212 42.475-8.86 59.769 13.844 21.168 46.516 31.821 74.342 24.212 28.519-7.748 45.962-32.652 47.623-68.07 5.676-121.475 70.328-158.969 117.397-186.224 29.349-17.018 50.531-29.193 45.824-55.065-.693-3.597-2.077-6.088-4.43-7.61-6.092-4.012-17.859-1.245-31.426 1.938-26.719 6.225-63.267 14.803-85.141-22.275l2.354-1.384c20.766 35.28 54.822 27.394 82.095 21.03 14.259-3.32 26.58-6.226 33.502-1.522 2.907 1.937 4.845 4.98 5.538 9.408 4.983 27.809-17.998 41.091-47.208 57.97-46.655 26.979-110.475 64.058-116.151 184.011-1.8 36.802-19.797 62.536-49.562 70.698a79.386 79.386 0 01-19.104 2.352z" fill="#F5910A"/><path opacity=".2" d="M253.899 415.891c-23.535 0-46.793-10.653-58.145-27.947-7.061-10.653-15.09-33.205 9.137-63.089l2.215 1.798c-17.167 21.168-20.212 42.475-8.86 59.769 13.844 21.168 46.516 31.821 74.342 24.212 28.519-7.748 45.962-32.652 47.623-68.07 5.676-121.475 70.328-158.969 117.397-186.224 29.349-17.018 50.531-29.193 45.824-55.065-.693-3.597-2.077-6.088-4.43-7.61-6.092-4.012-17.859-1.245-31.426 1.938-26.719 6.225-63.267 14.803-85.141-22.275l2.354-1.384c20.766 35.28 54.822 27.394 82.095 21.03 14.259-3.32 26.58-6.226 33.502-1.522 2.907 1.937 4.845 4.98 5.538 9.408 4.983 27.809-17.998 41.091-47.208 57.97-46.655 26.979-110.475 64.058-116.151 184.011-1.8 36.802-19.797 62.536-49.562 70.698a79.386 79.386 0 01-19.104 2.352z" fill="#fff"/><path d="M333.781 40.538c9.553-.139 18.828 2.905 18.828 2.905s15.228 26.01 17.028 31.96c-.692 5.81-10.521 15.495-10.521 15.495l-25.335-50.36z" fill="#F5910A"/><path opacity=".3" d="M333.781 40.538c9.553-.139 18.828 2.905 18.828 2.905s15.228 26.01 17.028 31.96c-.692 5.81-10.521 15.495-10.521 15.495l-25.335-50.36z" fill="#fff"/><path d="M378.912 166.716c-5.676-7.194-11.353-14.665-16.059-22.69-1.108-1.937-2.215-4.012-3.323-6.087-.554-1.107-1.108-2.352-1.661-3.598-.554-1.106-1.523-2.628-1.662-3.735-1.661-17.571 4.292-30.438-1.384-44.55l-22.843 8.855s1.939 25.042 6.369 40.122c2.768 9.27 8.998 17.294 14.951 24.766 1.938 2.352 3.738 4.704 5.538 7.056 1.8 2.213 3.738 4.289 5.537 6.502 2.631 3.321 3.6 6.503 1.523 10.515-.138.277-.277.415-.277.692-.553.968 2.077 2.214 3.877 0 2.768-3.597 2.353-3.321 4.845-6.364 1.523-1.799 3.184-3.874 4.569-5.535 1.384-1.798 1.384-4.288 0-5.949z" fill="#F5910A"/><path opacity=".7" d="M378.912 166.716c-5.676-7.194-11.353-14.665-16.059-22.69-1.108-1.937-2.215-4.012-3.323-6.087-.554-1.107-1.108-2.352-1.661-3.598-.554-1.106-1.523-2.628-1.662-3.735-1.661-17.571 4.292-30.438-1.384-44.55l-22.843 8.855s1.939 25.042 6.369 40.122c2.768 9.27 8.998 17.294 14.951 24.766 1.938 2.352 3.738 4.704 5.538 7.056 1.8 2.213 3.738 4.289 5.537 6.502 2.631 3.321 3.6 6.503 1.523 10.515-.138.277-.277.415-.277.692-.553.968 2.077 2.214 3.877 0 2.768-3.597 2.353-3.321 4.845-6.364 1.523-1.799 3.184-3.874 4.569-5.535 1.384-1.798 1.384-4.288 0-5.949z" fill="#fff"/><path opacity=".3" d="M373.372 159.522c-3.045 3.735-9.275 8.439-12.044 10.376.554.692 1.246 1.384 1.8 2.076 5.676-3.736 10.106-8.44 11.767-10.377-.554-.692-1.107-1.383-1.523-2.075zm5.54 7.194c0-.138-.139-.138-.139-.138-.969.968-1.661 2.629-1.799 4.427-.139 1.245.138 2.352.553 3.321.416-.554.831-1.107 1.246-1.522 1.523-1.937 1.523-4.427.139-6.088z" fill="#F5910A"/><path d="M328.38 57.14c-2.353 3.459-5.26 6.918-8.86 9.962-1.799 1.522-3.876 2.905-6.091 4.15-1.108.554-2.353 1.107-3.599 1.522l-.97.277-.276.138c-.277 0-.416.139-.693.139-.415.138-.83.138-1.246.138-1.522.138-2.63-.138-3.461-.277-1.799-.415-2.907-1.107-4.014-1.798-1.108-.692-2.077-1.246-3.046-1.937a79.092 79.092 0 01-4.984-4.151c-3.045-2.905-5.814-5.95-8.306-9.27-1.108-1.522-.831-3.735.692-4.842 1.246-.83 2.769-.969 3.876-.139h.139c3.322 2.076 6.506 4.29 9.829 6.227 1.661.968 3.184 1.936 4.707 2.628.831.415 1.523.692 2.215.969.692.276 1.384.415 1.523.415.138 0 0-.139-.554-.139h-.415c-.139 0-.139 0-.277.139l.415-.277a12.647 12.647 0 001.8-1.107c1.246-.83 2.353-1.798 3.461-2.905 2.215-2.214 4.43-5.12 6.783-8.025 2.354-3.043 6.784-3.459 9.691-1.107 3.184 2.214 3.738 6.365 1.661 9.27z" fill="#F5910A"/><path opacity=".7" d="M328.38 57.14c-2.353 3.459-5.26 6.918-8.86 9.962-1.799 1.522-3.876 2.905-6.091 4.15-1.108.554-2.353 1.107-3.599 1.522l-.97.277-.276.138c-.277 0-.416.139-.693.139-.415.138-.83.138-1.246.138-1.522.138-2.63-.138-3.461-.277-1.799-.415-2.907-1.107-4.014-1.798-1.108-.692-2.077-1.246-3.046-1.937a79.092 79.092 0 01-4.984-4.151c-3.045-2.905-5.814-5.95-8.306-9.27-1.108-1.522-.831-3.735.692-4.842 1.246-.83 2.769-.969 3.876-.139h.139c3.322 2.076 6.506 4.29 9.829 6.227 1.661.968 3.184 1.936 4.707 2.628.831.415 1.523.692 2.215.969.692.276 1.384.415 1.523.415.138 0 0-.139-.554-.139h-.415c-.139 0-.139 0-.277.139l.415-.277a12.647 12.647 0 001.8-1.107c1.246-.83 2.353-1.798 3.461-2.905 2.215-2.214 4.43-5.12 6.783-8.025 2.354-3.043 6.784-3.459 9.691-1.107 3.184 2.214 3.738 6.365 1.661 9.27z" fill="#fff"/><path d="M277.712 48.147l1.661 2.767s1.246 3.597 3.738 4.29l6.784-2.215-.277-.553c-.831-1.245-.831-3.874-.416-5.95.277-2.074-.83-2.213-1.661-1.66-.415.277-.831 1.246-1.107 2.353-.277-.415-.693-.83-1.108-1.245l-2.076-2.076c-.831-.83-2.354-.968-3.185-.138l-1.661 1.522c-.969.692-1.246 1.937-.692 2.905z" fill="#F5910A"/><path opacity=".7" d="M277.712 48.147l1.661 2.767s1.246 3.597 3.738 4.29l6.784-2.215-.277-.553c-.831-1.245-.831-3.874-.416-5.95.277-2.074-.83-2.213-1.661-1.66-.415.277-.831 1.246-1.107 2.353-.277-.415-.693-.83-1.108-1.245l-2.076-2.076c-.831-.83-2.354-.968-3.185-.138l-1.661 1.522c-.969.692-1.246 1.937-.692 2.905z" fill="#fff"/><path d="M340.563 38.186c-6.368 1.522-15.229 5.257-21.181 8.993-2.077 1.383-3.185 3.873-2.631 6.226 2.631 13.005 8.722 30.576 15.367 41.644l30.595-12.59c.277-5.396-7.199-22.829-14.813-39.708-1.523-3.182-4.015-5.395-7.337-4.565z" fill="#F5910A"/><path opacity=".8" d="M340.563 38.186c-6.368 1.522-15.229 5.257-21.181 8.993-2.077 1.383-3.185 3.873-2.631 6.226 2.631 13.005 8.722 30.576 15.367 41.644l30.595-12.59c.277-5.396-7.199-22.829-14.813-39.708-1.523-3.182-4.015-5.395-7.337-4.565z" fill="#fff"/><path opacity=".3" d="M352.607 53.405l-6.091-2.076c1.384 3.597 6.229 8.025 9.69 10.654-1.107-2.768-2.353-5.673-3.599-8.578z" fill="#F5910A"/><path d="M338.623 24.489c-2.491-4.843-8.029-7.195-14.536-6.641-5.537.415-10.383 6.087-9.829 9.131.554 3.044 5.261 4.289 6.091 5.396l-3.876 2.767c-1.938 1.383-2.353 4.012-.831 5.95 1.662 2.074 3.738 4.15 4.984 5.672 10.66-.277 18.413-4.29 21.32-8.163-1.107-4.981-.831-9.408-3.323-14.112z" fill="#F5910A"/><path opacity=".8" d="M338.623 24.489c-2.491-4.843-8.029-7.195-14.536-6.641-5.537.415-10.383 6.087-9.829 9.131.554 3.044 5.261 4.289 6.091 5.396l-3.876 2.767c-1.938 1.383-2.353 4.012-.831 5.95 1.662 2.074 3.738 4.15 4.984 5.672 10.66-.277 18.413-4.29 21.32-8.163-1.107-4.981-.831-9.408-3.323-14.112z" fill="#fff"/><path d="M333.366 27.394c2.077 5.396-.554 11.483-5.953 13.559-5.399 2.075-11.49-.554-13.567-5.95-2.076-5.395.554-11.483 5.953-13.558 5.399-2.076 11.491.553 13.567 5.95z" fill="#171717"/><path d="M423.211 152.189c-.139-4.566-.416-4.15-.416-8.024-.138-2.352-.138-4.981-.138-7.195 0-2.213-1.523-4.15-3.738-4.565-1.8-.416-3.738-.692-5.538-1.107-2.353-.554-4.706-1.107-7.06-1.799-1.8-.553-3.599-1.107-5.399-1.798a96.259 96.259 0 01-5.676-2.214c-2.215-.969-4.292-1.937-6.507-2.906-2.353-1.106-4.707-2.352-7.06-3.597-9.137-15.08-9.276-25.042-19.105-36.663l-21.043 9.546s15.367 27.394 25.888 38.877c6.092 6.641 15.506 9.685 23.951 11.899 6.091 1.522 12.321 2.767 18.55 3.874 2.354.415 4.984.553 7.061 2.075 1.661 1.107 2.492 2.905 2.907 4.842.139.415.139.83.277 1.107.415 1.245 3.184.277 3.046-2.352z" fill="#F5910A"/><path opacity=".8" d="M423.211 152.189c-.139-4.566-.416-4.15-.416-8.024-.138-2.352-.138-4.981-.138-7.195 0-2.213-1.523-4.15-3.738-4.565-1.8-.416-3.738-.692-5.538-1.107-2.353-.554-4.706-1.107-7.06-1.799-1.8-.553-3.599-1.107-5.399-1.798a96.259 96.259 0 01-5.676-2.214c-2.215-.969-4.292-1.937-6.507-2.906-2.353-1.106-4.707-2.352-7.06-3.597-9.137-15.08-9.276-25.042-19.105-36.663l-21.043 9.546s15.367 27.394 25.888 38.877c6.092 6.641 15.506 9.685 23.951 11.899 6.091 1.522 12.321 2.767 18.55 3.874 2.354.415 4.984.553 7.061 2.075 1.661 1.107 2.492 2.905 2.907 4.842.139.415.139.83.277 1.107.415 1.245 3.184.277 3.046-2.352z" fill="#fff"/><path opacity=".3" d="M412.69 131.159c-.831-.138-1.661-.415-2.492-.553 0 4.842-2.215 13.005-3.046 15.496.831.138 1.8.276 2.631.553 2.353-6.641 2.768-13.559 2.907-15.496zm9.967 5.811c0-2.213-1.522-4.15-3.737-4.565-.416-.139-.831-.139-1.385-.277.139 1.245.969 2.767 2.215 4.012.831.83 1.938 1.384 2.769 1.522.138-.277.138-.415.138-.692z" fill="#F5910A"/><path d="M331.425 27.532c.554 2.076-1.8 4.29-3.738 2.49-1.523-1.521-3.876-3.873-5.676-5.118-1.938-1.245.692-3.32 3.738-2.49 2.769.83 5.122 3.043 5.676 5.118z" fill="#fff"/><path d="M331.564 94.357c-.969.415.831 2.076.831 2.076s19.381-6.641 31.148-13.42c.139-1.384-.969-2.214-.969-2.214s-14.397 7.47-31.01 13.558z" fill="#F5910A"/><path opacity=".5" d="M331.564 94.357c-.969.415.831 2.076.831 2.076s19.381-6.641 31.148-13.42c.139-1.384-.969-2.214-.969-2.214s-14.397 7.47-31.01 13.558z" fill="#fff"/><path d="M345.824 37.217a118.452 118.452 0 0110.936 6.226c1.8 1.107 3.6 2.214 5.261 3.459a66.34 66.34 0 015.261 4.012l.692.554.831.691c.553.554.969.969 1.384 1.522.415.554.831.969 1.246 1.384.415.415.692.968 1.108 1.383 1.384 1.799 2.491 3.736 3.599 5.535 2.077 3.735 4.015 7.47 5.538 11.483.692 1.799-.277 3.874-2.077 4.427-1.384.554-2.769.138-3.738-.83v-.138c-2.769-2.906-5.399-6.088-8.168-8.993-2.63-2.906-5.399-5.811-7.614-7.056-3.184-1.937-6.645-3.874-10.106-5.811l-10.522-5.811c-3.322-1.799-4.568-6.088-2.63-9.408 1.661-3.044 5.676-4.29 8.999-2.629z" fill="#F5910A"/><path opacity=".8" d="M345.824 37.217a118.452 118.452 0 0110.936 6.226c1.8 1.107 3.6 2.214 5.261 3.459a66.34 66.34 0 015.261 4.012l.692.554.831.691c.553.554.969.969 1.384 1.522.415.554.831.969 1.246 1.384.415.415.692.968 1.108 1.383 1.384 1.799 2.491 3.736 3.599 5.535 2.077 3.735 4.015 7.47 5.538 11.483.692 1.799-.277 3.874-2.077 4.427-1.384.554-2.769.138-3.738-.83v-.138c-2.769-2.906-5.399-6.088-8.168-8.993-2.63-2.906-5.399-5.811-7.614-7.056-3.184-1.937-6.645-3.874-10.106-5.811l-10.522-5.811c-3.322-1.799-4.568-6.088-2.63-9.408 1.661-3.044 5.676-4.29 8.999-2.629z" fill="#fff"/><path d="M385.004 80.384l-1.108-2.906s-.692-3.735-3.045-4.842l-6.922 1.107.277.553c.692 1.383.138 3.874-.416 5.95-.692 2.075.416 2.213 1.385 1.936.554-.277.969-1.107 1.523-2.075.277.553.553.968.83 1.383l1.662 2.352c.692.969 2.076 1.246 3.184.554l1.938-1.245c.692-.554 1.107-1.66.692-2.767z" fill="#F5910A"/><path opacity=".8" d="M385.004 80.384l-1.108-2.906s-.692-3.735-3.045-4.842l-6.922 1.107.277.553c.692 1.383.138 3.874-.416 5.95-.692 2.075.416 2.213 1.385 1.936.554-.277.969-1.107 1.523-2.075.277.553.553.968.83 1.383l1.662 2.352c.692.969 2.076 1.246 3.184.554l1.938-1.245c.692-.554 1.107-1.66.692-2.767z" fill="#fff"/><path opacity=".3" d="M340.009 53.128l-1.661.138-10.383 25.042c.554 0 1.107 0 1.661-.138 0 0 13.567-4.98 17.582-6.918-2.769-5.672-7.199-18.124-7.199-18.124z" fill="#F5910A"/><path d="M321.043 59.769c.554 4.566 4.015 14.112 6.922 18.54 5.122-1.8 13.567-4.981 17.582-6.918-2.769-5.673-5.676-13.56-7.199-18.125-4.43.277-13.844 3.874-17.305 6.503z" fill="#fff"/><path opacity=".3" d="M331.426 65.165c-.553 1.937-2.492 2.905-4.43 2.352-1.938-.554-2.907-2.49-2.353-4.428.554-1.937 2.492-2.905 4.43-2.352 1.8.554 2.907 2.49 2.353 4.428z" fill="#F5910A"/><path opacity=".6" d="M334.056 60.322c-.138.554-.831.969-1.523.83-.554-.138-.969-.83-.83-1.522.138-.553.83-.968 1.522-.83.693.277.97.969.831 1.522zm3.047-1.107c-.138.554-.831.969-1.523.83-.554-.138-.969-.83-.831-1.521.139-.554.831-.969 1.523-.83.693.138.969.83.831 1.521z" fill="#F5910A"/><path opacity=".5" d="M341.395 69.869l-12.736 5.119-.831-2.49 12.875-5.12.692 2.49z" fill="#F5910A"/><path d="M85.418 335.231l24.227 24.212 67.835-63.919c-23.257-8.855-68.804 16.464-92.062 39.707zm84.586 84.534l-24.227-24.212 63.959-67.793c8.861 23.244-16.612 68.762-39.732 92.005z" fill="#171717"/><path d="M262.759 267.161l26.442-50.914-51.084 26.287c-16.336 8.44-31.426 19.231-44.854 31.822l-86.802 81.767 42.639 42.613 81.818-86.748c12.598-13.421 23.258-28.501 31.841-44.827z" fill="#14A2B6"/><path opacity=".6" d="M262.759 267.161l26.442-50.914-51.084 26.287c-16.336 8.44-31.426 19.231-44.854 31.822l-86.802 81.767 42.639 42.613 81.818-86.748c12.598-13.421 23.258-28.501 31.841-44.827z" fill="#fff"/><path d="M208.492 314.616c9.863 0 17.858-7.99 17.858-17.847 0-9.857-7.995-17.848-17.858-17.848-9.864 0-17.859 7.991-17.859 17.848s7.995 17.847 17.859 17.847z" fill="#fff"/><path d="M208.491 308.252c6.346 0 11.49-5.141 11.49-11.483 0-6.342-5.144-11.484-11.49-11.484-6.347 0-11.491 5.142-11.491 11.484s5.144 11.483 11.491 11.483z" fill="#14A2B6"/><path opacity=".3" d="M163.5 383.517l-41.809-41.783 34.195-32.237 39.871 39.846-32.257 34.174z" fill="#14A2B6"/><path d="M94.971 373.555c-31.287 2.491-41.67 22.552-45.131 49.116-1.8 13.558-2.63 27.255-13.983 35.28-3.184 2.214-1.661 7.056 2.215 7.056 41.947-1.245 61.606-21.86 64.098-30.438-.831 5.396-2.077 9.685-3.461 13.144-1.385 3.459 2.353 6.641 5.537 4.704 11.768-7.333 26.581-21.03 27.55-43.028-8.722-12.314-36.825-35.834-36.825-35.834z" fill="#14A2B6"/><path opacity=".2" d="M94.971 373.555c-31.287 2.491-41.67 22.552-45.131 49.116-1.8 13.558-2.63 27.255-13.983 35.28-3.184 2.214-1.661 7.056 2.215 7.056 41.947-1.245 61.606-21.86 64.098-30.438-.831 5.396-2.077 9.685-3.461 13.144-1.385 3.459 2.353 6.641 5.537 4.704 11.768-7.333 26.581-21.03 27.55-43.028-8.722-12.314-36.825-35.834-36.825-35.834z" fill="#fff"/><path d="M136.502 418.797l-50.115-50.084 26.719-5.811 29.21 29.193-5.814 26.702z" fill="#14A2B6"/></g><defs><clipPath id="clip0_608_3257"><path fill="#fff" d="M0 0h488v474H0z"/></clipPath></defs></svg>