<svg width="146" height="50" fill="none" xmlns="http://www.w3.org/2000/svg"><path d="M35.786 0a9.284 9.284 0 00-6.58 2.752 9.432 9.432 0 00-2.73 6.632v6.256h-7.759V9.384a9.421 9.421 0 00-2.743-6.604A9.274 9.274 0 009.407.048 9.273 9.273 0 002.84 2.78 9.421 9.421 0 00.097 9.384v31.28a9.42 9.42 0 002.743 6.604A9.274 9.274 0 009.407 50a9.274 9.274 0 006.567-2.732 9.421 9.421 0 002.743-6.604v-3.128l-3.103-1.564v4.692a6.29 6.29 0 01-1.046 3.476 6.218 6.218 0 01-2.786 2.304 6.163 6.163 0 01-3.586.356 6.193 6.193 0 01-3.178-1.712 6.272 6.272 0 01-1.699-3.203 6.302 6.302 0 01.353-3.615 6.246 6.246 0 012.287-2.808 6.173 6.173 0 013.448-1.054h26.38a6.17 6.17 0 013.448 1.054 6.245 6.245 0 012.286 2.808 6.3 6.3 0 01.353 3.614 6.27 6.27 0 01-1.699 3.204 6.19 6.19 0 01-3.178 1.712 6.163 6.163 0 01-3.586-.356 6.22 6.22 0 01-2.786-2.304 6.293 6.293 0 01-1.046-3.476v-3.128l-3.103-1.564v4.692a9.42 9.42 0 002.744 6.604A9.274 9.274 0 0035.786 50a9.274 9.274 0 006.567-2.732 9.421 9.421 0 002.744-6.604V9.384a9.432 9.432 0 00-2.73-6.632A9.284 9.284 0 0035.787 0zM29.58 9.384a6.29 6.29 0 011.046-3.476 6.218 6.218 0 012.786-2.304 6.162 6.162 0 013.586-.356 6.192 6.192 0 013.178 1.712 6.27 6.27 0 011.7 3.203 6.3 6.3 0 01-.354 3.615 6.246 6.246 0 01-2.286 2.807 6.172 6.172 0 01-3.449 1.055H29.58V9.384zM9.407 3.128a6.19 6.19 0 014.387 1.835 6.289 6.289 0 011.82 4.421v6.256H9.407a6.163 6.163 0 01-2.387-.465 6.204 6.204 0 01-2.027-1.354 6.258 6.258 0 01-1.356-2.034 6.299 6.299 0 011.356-6.84A6.203 6.203 0 017.02 3.592a6.164 6.164 0 012.387-.465zm26.38 28.151H9.406A9.232 9.232 0 003.2 33.675V16.372a9.232 9.232 0 006.207 2.395h26.38a9.231 9.231 0 006.206-2.395v17.303a9.231 9.231 0 00-6.207-2.396zm23.31-19.489c0-1.12.56-1.68 1.68-1.68h13.23c1.12 0 1.68.56 1.68 1.68v.463c0 1.12-.56 1.68-1.68 1.68h-9.408c-1.12 0-1.68.56-1.68 1.68v7.14c0 1.12.56 1.68 1.68 1.68h9.408c1.12 0 1.68.56 1.68 1.68v.462c0 1.12-.56 1.68-1.68 1.68h-9.408c-1.12 0-1.68.56-1.68 1.68v8.652c0 1.12-.56 1.68-1.68 1.68h-.462c-1.12 0-1.68-.56-1.68-1.68V11.79zm24.626 26.755c0 1.12-.56 1.68-1.68 1.68h-.462c-1.12 0-1.68-.56-1.68-1.68V23.803c0-.812.28-1.498.84-2.058l1.386-1.386c.56-.56 1.246-.84 2.058-.84h.756c1.12 0 1.68.56 1.68 1.68v.462c0 1.12-.476 1.68-1.428 1.68-.476 0-.84.154-1.092.462-.252.28-.378.686-.378 1.218v13.524zm9.722 1.68c-.812 0-1.498-.28-2.058-.84l-1.386-1.386c-.56-.56-.84-1.246-.84-2.058v-4.872c0-.42.07-.784.21-1.092.14-.336.364-.658.672-.966l1.344-1.344c.56-.56 1.246-.84 2.058-.84h3.99c1.12 0 1.68-.56 1.68-1.68v-.126c0-1.12-.56-1.68-1.68-1.68h-6.468c-1.12 0-1.68-.56-1.68-1.68v-.462c0-1.12.56-1.68 1.68-1.68h7.686c.812 0 1.498.28 2.058.84l1.386 1.386c.56.56.84 1.246.84 2.058v14.742c0 1.12-.56 1.68-1.68 1.68h-7.812zm5.67-8.274c0-1.12-.56-1.68-1.68-1.68h-2.772c-1.12 0-1.68.56-1.68 1.68v3.15c0 1.12.56 1.68 1.68 1.68h2.772c1.12 0 1.68-.56 1.68-1.68v-3.15zm12.704 6.678c0 1.12-.56 1.68-1.68 1.68h-.462c-1.12 0-1.68-.56-1.68-1.68V23.803c0-.812.28-1.498.84-2.058l1.386-1.386c.56-.56 1.246-.84 2.058-.84h5.208c.812 0 1.498.294 2.058.882l1.344 1.344c.56.56.84 1.246.84 2.058v14.826c0 1.12-.56 1.68-1.68 1.68h-.42c-1.12 0-1.68-.56-1.68-1.68V25.02c0-1.12-.56-1.68-1.68-1.68h-2.772c-1.12 0-1.68.56-1.68 1.68v13.608zM132.2 34.47c-.336-.615-.714-.923-1.134-.923-.252 0-.462.126-.63.378-.168.252-.252.616-.252 1.092v3.57c0 1.12-.56 1.68-1.68 1.68h-.462c-1.12 0-1.68-.56-1.68-1.68V11.37c0-1.12.56-1.68 1.68-1.68h.462c1.12 0 1.68.56 1.68 1.68v11.844c0 .448.07.798.21 1.05.168.252.378.378.63.378.392 0 .798-.266 1.218-.798l2.52-3.234c.56-.728 1.232-1.092 2.016-1.092h.63c.448 0 .798.098 1.05.294a.916.916 0 01.378.756c0 .28-.112.602-.336.966l-4.074 6.048a2.027 2.027 0 00-.378 1.176c0 .392.098.77.294 1.134l4.494 8.358c.168.336.252.644.252.924a.957.957 0 01-.378.798c-.252.196-.588.294-1.008.294h-.882c-.924 0-1.596-.392-2.016-1.176l-2.604-4.62zm10.47-20.495c.42-.42.854-.63 1.302-.63.448 0 .882.21 1.302.63.42.42.63.854.63 1.302 0 .448-.21.882-.63 1.302-.42.42-.854.63-1.302.63-.448 0-.882-.21-1.302-.63-.42-.42-.63-.854-.63-1.302 0-.448.21-.882.63-1.302zm-.588 7.224c0-1.12.56-1.68 1.68-1.68h.42c1.12 0 1.68.56 1.68 1.68v17.388c0 1.12-.56 1.68-1.68 1.68h-.42c-1.12 0-1.68-.56-1.68-1.68V21.199z" fill="#BDBDBD"/></svg>