<svg width="142" height="40" fill="none" xmlns="http://www.w3.org/2000/svg"><path fill-rule="evenodd" clip-rule="evenodd" d="M38.04 2.75l9.476 15.389H28.564L38.04 2.75zm0-2.75L26.016 19.485h24.049L38.04 0zM21.565 21.89l-9.476 15.388L2.613 21.89h18.952zm2.538-1.375H.064L12.09 40l12.014-19.485zm-1.44-1.866L12.089 1.51 1.492 18.65h21.172zm2.725 3.741L35.974 40H14.3l10.76-17.61h.33zM38.04 38.663l-10.36-17.34h20.864L38.04 38.663z" fill="#BDBDBD"/><path d="M76.874 4.67c0-1.12.56-1.68 1.68-1.68h.462c1.12 0 1.68.56 1.68 1.68v26.88c0 1.12-.56 1.68-1.68 1.68h-.462c-1.12 0-1.68-.56-1.68-1.68V20.588c0-1.12-.56-1.68-1.68-1.68h-5.627c-1.12 0-1.68.56-1.68 1.68V31.55c0 1.12-.56 1.68-1.68 1.68h-.462c-1.12 0-1.68-.56-1.68-1.68V4.67c0-1.12.56-1.68 1.68-1.68h.462c1.12 0 1.68.56 1.68 1.68v8.736c0 1.12.56 1.68 1.68 1.68h5.628c1.12 0 1.68-.56 1.68-1.68V4.67zm20.92 9.996c.56.588.84 1.288.84 2.1v12.18a2.94 2.94 0 01-.84 2.1L96.45 32.39c-.56.56-1.246.84-2.058.84h-5.208c-.812 0-1.498-.28-2.058-.84l-1.386-1.386c-.56-.56-.84-1.246-.84-2.058v-12.18c0-.812.28-1.498.84-2.058l1.386-1.386c.56-.56 1.246-.84 2.058-.84h5.208c.812 0 1.498.28 2.058.84l1.344 1.344zm-2.982 3.318c0-1.12-.56-1.68-1.68-1.68h-2.73c-1.12 0-1.68.56-1.68 1.68v9.744c0 1.12.56 1.68 1.68 1.68h2.73c1.12 0 1.68-.56 1.68-1.68v-9.744zm10.196-4.662c.56-.56 1.26-.84 2.1-.84h3.864c1.12 0 1.68-.56 1.68-1.68V4.754c0-1.12.56-1.68 1.68-1.68h.462c1.12 0 1.68.56 1.68 1.68V31.55c0 1.12-.56 1.68-1.68 1.68h-7.686c-.812 0-1.498-.28-2.058-.84l-1.386-1.386c-.56-.56-.84-1.246-.84-2.058V16.724c0-.812.28-1.498.84-2.058l1.344-1.344zm1.638 14.406c0 1.12.56 1.68 1.68 1.68h2.646c1.12 0 1.68-.56 1.68-1.68v-9.744c0-1.12-.56-1.68-1.68-1.68h-2.646c-1.12 0-1.68.56-1.68 1.68v9.744zm14.02-23.016c0-1.12.56-1.68 1.68-1.68h.42c1.12 0 1.68.56 1.68 1.68V31.55c0 1.12-.56 1.68-1.68 1.68h-.42c-1.12 0-1.68-.56-1.68-1.68V4.712zm15.768 17.976c1.12 0 1.68-.56 1.68-1.68v-6.846c0-1.12.56-1.68 1.68-1.68h.462c1.12 0 1.68.56 1.68 1.68v18.564c0 .812-.28 1.498-.84 2.058l-1.386 1.386c-.56.56-1.246.84-2.058.84h-7.35c-1.12 0-1.68-.56-1.68-1.68v-.462c0-1.12.56-1.68 1.68-1.68h6.132c1.12 0 1.68-.56 1.68-1.68V28.19c0-1.12-.56-1.68-1.68-1.68h-3.906c-.812 0-1.498-.28-2.058-.84l-1.386-1.386c-.56-.56-.84-1.246-.84-2.058v-8.064c0-1.12.56-1.68 1.68-1.68h.462c1.12 0 1.68.56 1.68 1.68v6.846c0 1.12.56 1.68 1.68 1.68h2.688z" fill="#BDBDBD"/></svg>