<svg width="144" height="50" fill="none" xmlns="http://www.w3.org/2000/svg"><path fill-rule="evenodd" clip-rule="evenodd" d="M33.383 9.66L24.22 4.862 5.776 14.51l-4.623-2.426L24.22 0l13.81 7.234-4.647 2.426zm-9.161 9.648L42.654 9.66l4.646 2.425L24.222 24.16l-13.798-7.224 4.634-2.425 9.164 4.797zM4.863 25.895L.229 23.468v14.447L23.295 50v-4.851l-18.432-9.66v-9.595zm13.798 2.372L.229 18.616v-4.85L23.295 25.84v14.458l-4.634-2.437v-9.595zm20.298-4.798v-4.851l-13.81 7.223V50l4.634-2.426V28.266l9.176-4.798zm4.624 12.021V16.191l4.646-2.425v24.149l-13.81 7.234v-4.851l9.164-4.809z" fill="#BDBDBD"/><path d="M75.038 9.607c0-1.12.56-1.68 1.68-1.68h.462c1.12 0 1.68.56 1.68 1.68v26.88c0 1.12-.56 1.68-1.68 1.68h-.462c-1.12 0-1.68-.56-1.68-1.68V25.525c0-1.12-.56-1.68-1.68-1.68h-5.627c-1.12 0-1.68.56-1.68 1.68v10.962c0 1.12-.56 1.68-1.68 1.68h-.462c-1.12 0-1.68-.56-1.68-1.68V9.607c0-1.12.56-1.68 1.68-1.68h.462c1.12 0 1.68.56 1.68 1.68v8.736c0 1.12.56 1.68 1.68 1.68h5.628c1.12 0 1.68-.56 1.68-1.68V9.607zm15.797 18.018c1.12 0 1.68-.56 1.68-1.68v-6.846c0-1.12.56-1.68 1.68-1.68h.462c1.12 0 1.68.56 1.68 1.68v18.564c0 .812-.28 1.498-.84 2.058l-1.386 1.386c-.56.56-1.246.84-2.059.84h-7.35c-1.12 0-1.68-.56-1.68-1.68v-.462c0-1.12.56-1.68 1.68-1.68h6.133c1.12 0 1.68-.56 1.68-1.68v-3.318c0-1.12-.56-1.68-1.68-1.68h-3.906c-.813 0-1.499-.28-2.058-.84l-1.386-1.386c-.56-.56-.84-1.246-.84-2.058v-8.064c0-1.12.56-1.68 1.68-1.68h.462c1.12 0 1.68.56 1.68 1.68v6.846c0 1.12.56 1.68 1.68 1.68h2.688zm11.802 14.448c-1.12 0-1.68-.56-1.68-1.68V19.099c0-1.12.56-1.68 1.68-1.68h7.728c.812 0 1.498.28 2.058.84l1.344 1.344c.56.56.84 1.246.84 2.058v7.854a2.94 2.94 0 01-.84 2.1l-1.344 1.344c-.56.56-1.246.84-2.058.84h-3.906c-1.12 0-1.68.56-1.68 1.68v4.914c0 1.12-.56 1.68-1.68 1.68h-.462zm3.822-20.874c-1.12 0-1.68.56-1.68 1.68v5.418c0 1.12.56 1.68 1.68 1.68h2.688c1.12 0 1.68-.56 1.68-1.68v-5.418c0-1.12-.56-1.68-1.68-1.68h-2.688zm25.98 7.476c0 1.12-.56 1.68-1.68 1.68h-6.468c-1.12 0-1.68.56-1.68 1.68v.588c0 1.12.56 1.68 1.68 1.68h6.468c1.12 0 1.68.56 1.68 1.68v.462c0 1.12-.56 1.68-1.68 1.68h-7.728a2.732 2.732 0 01-2.058-.882l-1.344-1.344c-.56-.56-.84-1.246-.84-2.058v-12.18c0-.812.28-1.498.84-2.058l1.344-1.344c.56-.56 1.246-.84 2.058-.84h5.166c.812 0 1.498.28 2.058.84l1.344 1.344c.56.56.84 1.246.84 2.058v7.014zm-9.828-3.36c0 1.12.56 1.68 1.68 1.68h2.646c1.12 0 1.68-.56 1.68-1.68v-2.436c0-1.12-.56-1.68-1.68-1.68h-2.646c-1.12 0-1.68.56-1.68 1.68v2.436zm18.262 11.13c0 1.12-.56 1.68-1.68 1.68h-.462c-1.12 0-1.68-.56-1.68-1.68V21.703c0-.812.28-1.498.84-2.058l1.386-1.386c.56-.56 1.246-.84 2.058-.84h.756c1.12 0 1.68.56 1.68 1.68v.462c0 1.12-.476 1.68-1.428 1.68-.476 0-.84.154-1.092.462-.252.28-.378.686-.378 1.218v13.524z" fill="#BDBDBD"/></svg>