<svg xmlns="http://www.w3.org/2000/svg" width="19" height="18" fill="none"><path fill="#14A2B6" d="M17.982 16.01l-3.378-3.378a7.676 7.676 0 001.585-4.681 7.688 7.688 0 00-2.267-5.473A7.689 7.689 0 008.449.211a7.69 7.69 0 00-5.473 2.267c-3.017 3.018-3.017 7.928 0 10.946A7.689 7.689 0 008.45 15.69a7.677 7.677 0 004.682-1.586l3.378 3.379a1.038 1.038 0 001.473 0 1.041 1.041 0 000-1.473zM4.449 11.95a5.663 5.663 0 010-7.999 5.62 5.62 0 014-1.656 5.62 5.62 0 014 1.656 5.62 5.62 0 011.657 4 5.62 5.62 0 01-1.657 4 5.619 5.619 0 01-4 1.657 5.62 5.62 0 01-4-1.657z"/></svg>