<svg width="100" height="47" fill="none" xmlns="http://www.w3.org/2000/svg"><path opacity=".8" d="M100 29.62c0 9.154-7.421 16.576-16.576 16.576-9.155 0-16.576-7.422-16.576-16.576 0-9.155 3.804-12.772 16.576-29.62C95.38 16.848 100 20.465 100 29.62z" fill="#91CFCC"/><path opacity=".8" d="M77.717 29.62c0 9.154-7.543 16.576-16.847 16.576-9.305 0-16.848-7.422-16.848-16.576 0-9.155 3.866-12.772 16.848-29.62 12.152 16.848 16.847 20.465 16.847 29.62z" fill="#56BDB9"/><path opacity=".8" d="M55.978 29.62c0 9.154-7.543 16.576-16.848 16.576-9.304 0-16.847-7.422-16.847-16.576 0-9.155 3.866-12.772 16.847-29.62 12.153 16.848 16.848 20.465 16.848 29.62z" fill="#0DA5B0"/><path opacity=".8" d="M33.152 29.62c0 9.154-7.421 16.576-16.576 16.576C7.421 46.196 0 38.774 0 29.62 0 20.465 3.804 16.848 16.576 0c11.957 16.848 16.576 20.465 16.576 29.62z" fill="#06618E"/><path d="M30.692 25.823h-4.304l.012 7.33h-1.184v-8.37h5.488l-.012 1.04zm18.398 3.611l-1.53 1.554v2.164h-1.196v-8.37h1.196v4.676l4.543-4.675h1.363l-3.575 3.766 3.803 4.603h-1.4l-3.204-3.718zm23.3 3.814c-.838 0-1.595-.183-2.273-.55a4.16 4.16 0 01-1.578-1.53c-.383-.654-.574-1.388-.574-2.2 0-.814.191-1.543.574-2.189a4.025 4.025 0 011.59-1.53c.678-.375 1.435-.562 2.272-.562.654 0 1.252.111 1.794.335a3.614 3.614 0 011.387.968l-.778.754c-.63-.662-1.415-.993-2.355-.993-.622 0-1.184.14-1.686.419a3.065 3.065 0 00-1.184 1.16 3.233 3.233 0 00-.418 1.637c0 .606.14 1.156.418 1.65.287.487.682.87 1.184 1.148a3.412 3.412 0 001.686.419c.933 0 1.718-.335 2.355-1.005l.778.754a3.71 3.71 0 01-1.4.98 4.667 4.667 0 01-1.793.335z" fill="#fff"/></svg>