<svg width="184" height="115" fill="none" xmlns="http://www.w3.org/2000/svg"><path d="M9.571 100.188H3.23L3.247 111H2.006V99.1h7.565v1.088zm-.168 1.87h1.207v7.106l5.968-7.106h1.07V111h-1.206v-7.106L10.492 111h-1.09v-8.942zm20.426 7.888v3.213h-1.14V111h-8.006v2.159h-1.14v-3.213h.51c.601-.034 1.01-.476 1.225-1.326.215-.85.362-2.04.442-3.57l.119-2.992h6.596v7.888h1.394zm-7.004-4.828c-.057 1.269-.165 2.318-.323 3.145-.16.816-.442 1.377-.85 1.683h5.576v-6.817h-4.301l-.102 1.989zm13.963-3.128c.839 0 1.598.193 2.278.578.68.374 1.212.907 1.598 1.598.385.691.578 1.479.578 2.363 0 .895-.193 1.689-.578 2.38a4.13 4.13 0 01-1.598 1.615c-.669.374-1.428.561-2.278.561-.725 0-1.383-.147-1.972-.442a3.807 3.807 0 01-1.428-1.326v4.981H32.18v-12.24h1.156v1.768a3.736 3.736 0 011.428-1.36c.6-.317 1.275-.476 2.023-.476zm-.085 8.024c.623 0 1.19-.142 1.7-.425a3.06 3.06 0 001.19-1.241c.294-.533.442-1.139.442-1.819 0-.68-.147-1.281-.442-1.802a3.062 3.062 0 00-1.19-1.241 3.333 3.333 0 00-1.7-.442c-.635 0-1.207.147-1.717.442a3.217 3.217 0 00-1.19 1.241c-.283.521-.425 1.122-.425 1.802 0 .68.142 1.286.425 1.819a3.21 3.21 0 001.19 1.241c.51.283 1.082.425 1.717.425zm10.821 1.071c-.861 0-1.638-.193-2.329-.578a4.344 4.344 0 01-1.632-1.632c-.397-.691-.595-1.473-.595-2.346s.198-1.655.595-2.346c.397-.691.94-1.23 1.632-1.615.691-.385 1.468-.578 2.33-.578.86 0 1.637.193 2.328.578a4.1 4.1 0 011.615 1.615c.397.691.595 1.473.595 2.346s-.198 1.655-.595 2.346a4.22 4.22 0 01-1.615 1.632c-.691.385-1.468.578-2.329.578zm0-1.071c.635 0 1.201-.142 1.7-.425a3.06 3.06 0 001.19-1.241c.283-.533.425-1.139.425-1.819 0-.68-.142-1.286-.425-1.819a2.947 2.947 0 00-1.19-1.224c-.498-.295-1.065-.442-1.7-.442s-1.207.147-1.717.442a3.09 3.09 0 00-1.19 1.224c-.283.533-.425 1.139-.425 1.819 0 .68.142 1.286.425 1.819.295.533.692.946 1.19 1.241.51.283 1.082.425 1.717.425zm11.352-4.471h-2.72V111h-1.224V99.1h1.224v5.338h2.72l4.029-5.338h1.36l-4.42 5.78L64.52 111h-1.445l-4.2-5.457zm10.878 5.542c-.862 0-1.638-.193-2.33-.578a4.344 4.344 0 01-1.631-1.632c-.397-.691-.595-1.473-.595-2.346s.198-1.655.595-2.346c.396-.691.94-1.23 1.632-1.615.691-.385 1.467-.578 2.329-.578.861 0 1.637.193 2.329.578a4.1 4.1 0 011.615 1.615c.396.691.595 1.473.595 2.346s-.199 1.655-.595 2.346a4.22 4.22 0 01-1.615 1.632c-.692.385-1.468.578-2.33.578zm0-1.071c.634 0 1.201-.142 1.7-.425.51-.295.906-.708 1.19-1.241.283-.533.425-1.139.425-1.819 0-.68-.142-1.286-.425-1.819a2.947 2.947 0 00-1.19-1.224c-.499-.295-1.066-.442-1.7-.442-.635 0-1.207.147-1.717.442a3.09 3.09 0 00-1.19 1.224c-.284.533-.425 1.139-.425 1.819 0 .68.141 1.286.425 1.819a3.21 3.21 0 001.19 1.241c.51.283 1.082.425 1.717.425zm17.114-7.956V111h-1.105v-7.072l-3.62 5.984h-.545l-3.62-6.001V111h-1.106v-8.942h1.224l3.791 6.443 3.86-6.443h1.121zm11.459 0V111H97.12v-7.871h-5.61V111h-1.207v-8.942h8.024zm10.741 0V111h-1.207v-7.871h-4.284l-.119 2.21c-.091 1.859-.306 3.287-.646 4.284-.34.997-.946 1.496-1.819 1.496-.238 0-.527-.045-.867-.136l.085-1.037c.204.045.346.068.425.068.465 0 .816-.215 1.054-.646.238-.431.397-.963.476-1.598.079-.635.147-1.473.204-2.516l.153-3.196h6.545zm11.251 4.845h-7.48c.068.929.425 1.683 1.071 2.261.646.567 1.462.85 2.448.85.556 0 1.066-.096 1.53-.289a3.434 3.434 0 001.207-.884l.68.782a3.806 3.806 0 01-1.496 1.088 4.973 4.973 0 01-1.955.374c-.918 0-1.734-.193-2.448-.578a4.316 4.316 0 01-1.649-1.632c-.396-.691-.595-1.473-.595-2.346s.187-1.655.561-2.346a4.21 4.21 0 011.564-1.615c.669-.385 1.417-.578 2.244-.578.828 0 1.57.193 2.227.578a4.078 4.078 0 011.547 1.615c.374.68.561 1.462.561 2.346l-.017.374zm-4.318-3.876c-.861 0-1.586.278-2.176.833-.578.544-.906 1.258-.986 2.142h6.341c-.079-.884-.413-1.598-1.003-2.142-.578-.555-1.303-.833-2.176-.833zm10.254 3.995h-2.04V111h-1.207v-8.942h1.207v3.927h2.057l3.145-3.927h1.309l-3.519 4.335 3.774 4.607h-1.428l-3.298-3.978zm12.738-3.893h-3.383V111h-1.207v-7.871h-3.383v-1.071h7.973v1.071zm7.236 7.973c-1.178 0-2.244-.261-3.196-.782a5.825 5.825 0 01-2.227-2.159c-.532-.929-.799-1.966-.799-3.111 0-1.145.267-2.176.799-3.094a5.753 5.753 0 012.244-2.176c.952-.521 2.018-.782 3.196-.782.884 0 1.7.147 2.448.442a5.068 5.068 0 011.904 1.292l-.799.799c-.929-.941-2.102-1.411-3.519-1.411-.94 0-1.796.215-2.567.646a4.79 4.79 0 00-1.819 1.768c-.43.748-.646 1.587-.646 2.516s.216 1.768.646 2.516a4.79 4.79 0 001.819 1.768c.771.431 1.627.646 2.567.646 1.428 0 2.601-.476 3.519-1.428l.799.799a5.207 5.207 0 01-1.921 1.309 6.614 6.614 0 01-2.448.442zm6.678-9.044h1.207v3.961h5.627v-3.961h1.207V111h-1.207v-3.944h-5.627V111h-1.207v-8.942zm14.549-.068c1.167 0 2.063.295 2.686.884.623.578.935 1.439.935 2.584V111h-1.156v-1.394c-.272.465-.674.827-1.207 1.088-.521.261-1.145.391-1.87.391-.997 0-1.791-.238-2.38-.714s-.884-1.105-.884-1.887c0-.759.272-1.371.816-1.836.555-.465 1.434-.697 2.635-.697h2.839v-.544c0-.771-.215-1.354-.646-1.751-.431-.408-1.06-.612-1.887-.612a4.66 4.66 0 00-1.632.289 3.99 3.99 0 00-1.343.765l-.544-.901c.453-.385.997-.68 1.632-.884a6.21 6.21 0 012.006-.323zm-.425 8.143c.68 0 1.264-.153 1.751-.459.487-.317.85-.771 1.088-1.36v-1.462h-2.805c-1.53 0-2.295.533-2.295 1.598 0 .521.198.935.595 1.241.397.295.952.442 1.666.442zm11.594-7.854c.828 0 1.564.187 2.21.561a3.787 3.787 0 011.53 1.547c.363.657.544 1.411.544 2.261 0 .873-.192 1.649-.578 2.329a3.96 3.96 0 01-1.581 1.564c-.68.374-1.462.561-2.346.561-1.484 0-2.635-.521-3.451-1.564-.816-1.043-1.224-2.482-1.224-4.318 0-1.915.363-3.383 1.088-4.403.737-1.02 1.882-1.711 3.434-2.074l4.012-.918.204 1.105-3.774.867c-1.28.283-2.221.788-2.822 1.513-.6.714-.929 1.774-.986 3.179a4.004 4.004 0 011.513-1.615c.646-.397 1.389-.595 2.227-.595zm-.187 7.82c.624 0 1.179-.142 1.666-.425a3.01 3.01 0 001.156-1.224c.284-.521.425-1.111.425-1.768s-.136-1.235-.408-1.734a2.835 2.835 0 00-1.156-1.156c-.487-.283-1.048-.425-1.683-.425-.634 0-1.201.142-1.7.425a2.987 2.987 0 00-1.156 1.156c-.272.499-.408 1.077-.408 1.734s.136 1.247.408 1.768a3.14 3.14 0 001.173 1.224c.499.283 1.06.425 1.683.425z" fill="#066190"/><path opacity=".8" d="M184 54.5c0 16.845-13.655 30.5-30.5 30.5S123 71.345 123 54.5 130 31 153.5 0c22 31 30.5 37.655 30.5 54.5z" fill="#91CFCC"/><path opacity=".8" d="M143 54.5c0 16.845-13.879 30.5-31 30.5-17.12 0-31-13.655-31-30.5S88.115 31 112 0c22.361 31 31 37.655 31 54.5z" fill="#56BDB9"/><path opacity=".8" d="M103 54.5C103 71.345 89.12 85 72 85c-17.12 0-31-13.655-31-30.5S48.115 31 72 0c22.36 31 31 37.655 31 54.5z" fill="#0DA5B0"/><path opacity=".8" d="M61 54.5C61 71.345 47.345 85 30.5 85S0 71.345 0 54.5 7 31 30.5 0C52.5 31 61 37.655 61 54.5z" fill="#06618E"/><path d="M56.474 47.514h-7.92L48.576 61h-2.178V45.6h10.098l-.022 1.914zm33.852 6.644l-2.816 2.86V61h-2.2V45.6h2.2v8.602l8.36-8.602h2.508L91.8 52.53 98.796 61h-2.574l-5.896-6.842zm42.87 7.018c-1.54 0-2.933-.337-4.18-1.012a7.653 7.653 0 01-2.904-2.816c-.704-1.203-1.056-2.552-1.056-4.048s.352-2.838 1.056-4.026a7.404 7.404 0 012.926-2.816c1.247-.69 2.64-1.034 4.18-1.034 1.203 0 2.303.205 3.3.616a6.65 6.65 0 012.552 1.782l-1.43 1.386c-1.159-1.217-2.603-1.826-4.334-1.826-1.144 0-2.178.257-3.102.77a5.64 5.64 0 00-2.178 2.134c-.513.895-.77 1.9-.77 3.014 0 1.115.257 2.127.77 3.036a5.687 5.687 0 002.178 2.112c.924.513 1.958.77 3.102.77 1.716 0 3.161-.616 4.334-1.848l1.43 1.386a6.826 6.826 0 01-2.574 1.804c-.997.41-2.097.616-3.3.616z" fill="#fff"/></svg>