<svg width="134" height="50" fill="none" xmlns="http://www.w3.org/2000/svg"><path fill-rule="evenodd" clip-rule="evenodd" d="M26.924 2.546a3.562 3.562 0 00-1.63-.39c-.572 0-1.134.134-1.63.39L4.338 12.512a3.11 3.11 0 00-1.193 1.066 2.677 2.677 0 00-.437 1.456v19.932c0 .511.151 1.014.437 1.456.286.443.698.81 1.193 1.066l19.326 9.966c.496.256 1.058.39 1.63.39.573 0 1.135-.134 1.63-.39l19.327-9.966a3.109 3.109 0 001.193-1.066c.286-.442.436-.944.436-1.456V15.034c0-.511-.15-1.014-.436-1.456a3.108 3.108 0 00-1.194-1.066L26.925 2.546zM22.458.679A6.212 6.212 0 0125.295 0c.996 0 1.975.235 2.837.679l19.326 9.966a5.426 5.426 0 012.075 1.856c.498.77.76 1.644.762 2.533v19.932a4.673 4.673 0 01-.763 2.533 5.425 5.425 0 01-2.075 1.856L28.131 49.32a6.204 6.204 0 01-2.837.679 6.204 6.204 0 01-2.836-.679L3.132 39.355a5.424 5.424 0 01-2.075-1.856 4.671 4.671 0 01-.762-2.533V15.034c.002-.89.264-1.763.762-2.533a5.424 5.424 0 012.075-1.856L22.458.68zm-10.29 22.813c.293-.001.584.05.856.15.271.101.518.249.725.435l2.994 2.674 6.148-5.49c.638-.57 1.502-.889 2.403-.889.9 0 1.765.32 2.403.888l8.548 7.635 2.642-2.36c.42-.373.988-.584 1.581-.584s1.162.21 1.582.585l3.46 3.093V16.08c0-.457-.134-.907-.39-1.303a2.784 2.784 0 00-1.069-.954l-17.298-8.92a3.192 3.192 0 00-1.46-.35c-.512 0-1.015.12-1.459.35l-17.299 8.92a2.784 2.784 0 00-1.068.954 2.397 2.397 0 00-.391 1.303v12.918l5.508-4.92a2.25 2.25 0 01.726-.434c.272-.1.563-.152.857-.151zm-7.092 8.454v1.976c0 .42.114.833.331 1.205.218.372.533.691.918.931l8.768-7.831-2.43-2.172a.711.711 0 00-.228-.135.772.772 0 00-.763.135l-6.596 5.891zm39.186 4.112l-6.365-5.687 2.076-1.855a.745.745 0 01.495-.184c.186 0 .364.066.495.183l4.548 4.063v1.344c0 .42-.114.833-.331 1.205a2.723 2.723 0 01-.918.931zm-8.015-4.213l-1.65-1.474-8.549-7.635c-.2-.178-.47-.278-.751-.278-.282 0-.553.1-.752.278l-6.148 5.491-1.65 1.474-8.334 7.444 15.423 7.954c.444.229.947.35 1.46.35.512 0 1.015-.121 1.46-.35l15.423-7.954-5.932-5.3z" fill="#BDBDBD"/><path d="M80.087 12.337c.56.588.84 1.288.84 2.1v11.256a2.94 2.94 0 01-.84 2.1l-1.344 1.344c-.56.56-1.246.84-2.058.84h-6.888c-1.12 0-1.68.56-1.68 1.68v6.972c0 1.12-.56 1.68-1.68 1.68h-.462c-1.12 0-1.68-.56-1.68-1.68V11.833c0-1.12.56-1.68 1.68-1.68h10.71c.812 0 1.498.28 2.058.84l1.344 1.344zm-2.94 3.318c0-1.12-.56-1.68-1.68-1.68h-5.628c-1.12 0-1.68.56-1.68 1.68v8.82c0 1.12.56 1.68 1.68 1.68h5.586c1.12 0 1.68-.56 1.68-1.68l.042-8.82zm21.223 15.12c0 1.12-.56 1.68-1.68 1.68h-6.467c-1.12 0-1.68.56-1.68 1.68v.588c0 1.12.56 1.68 1.68 1.68h6.468c1.12 0 1.68.56 1.68 1.68v.462c0 1.12-.56 1.68-1.68 1.68h-7.728a2.732 2.732 0 01-2.058-.882l-1.344-1.344c-.56-.56-.84-1.246-.84-2.058V23.76c0-.812.28-1.498.84-2.058l1.344-1.344c.56-.56 1.246-.84 2.058-.84h5.166c.812 0 1.498.28 2.058.84l1.344 1.344c.56.56.84 1.246.84 2.058v7.014zm-9.827-3.36c0 1.12.56 1.68 1.68 1.68h2.646c1.12 0 1.68-.56 1.68-1.68v-2.436c0-1.12-.56-1.68-1.68-1.68h-2.646c-1.12 0-1.68.56-1.68 1.68v2.436zm18.304 12.81c-.812 0-1.498-.28-2.058-.84l-1.386-1.386c-.561-.56-.841-1.246-.841-2.058v-4.872c0-.42.071-.784.211-1.092.14-.336.364-.658.671-.966l1.345-1.344c.56-.56 1.246-.84 2.058-.84h3.99c1.12 0 1.68-.56 1.68-1.68v-.126c0-1.12-.56-1.68-1.68-1.68h-6.469c-1.119 0-1.679-.56-1.679-1.68v-.462c0-1.12.56-1.68 1.679-1.68h7.687c.812 0 1.498.28 2.058.84l1.386 1.386c.56.56.84 1.246.84 2.058v14.742c0 1.12-.56 1.68-1.68 1.68h-7.812zm5.67-8.274c0-1.12-.56-1.68-1.68-1.68h-2.772c-1.12 0-1.68.56-1.68 1.68v3.15c0 1.12.56 1.68 1.68 1.68h2.772c1.12 0 1.68-.56 1.68-1.68v-3.15zm14.3 2.519c-.336-.615-.714-.923-1.134-.923-.252 0-.462.126-.63.378-.168.252-.252.616-.252 1.092v3.57c0 1.12-.56 1.68-1.68 1.68h-.462c-1.12 0-1.68-.56-1.68-1.68V11.37c0-1.12.56-1.68 1.68-1.68h.462c1.12 0 1.68.56 1.68 1.68v11.844c0 .448.07.798.21 1.05.168.252.378.378.63.378.392 0 .798-.266 1.218-.798l2.52-3.234c.56-.728 1.232-1.092 2.016-1.092h.63c.448 0 .798.098 1.05.294a.916.916 0 01.378.756c0 .28-.112.602-.336.966l-4.074 6.048a2.027 2.027 0 00-.378 1.176c0 .392.098.77.294 1.134l4.494 8.358c.168.336.252.644.252.924a.957.957 0 01-.378.798c-.252.196-.588.294-1.008.294h-.882c-.924 0-1.596-.392-2.016-1.176l-2.604-4.62z" fill="#BDBDBD"/></svg>