<svg width="168" height="46" fill="none" xmlns="http://www.w3.org/2000/svg"><path fill-rule="evenodd" clip-rule="evenodd" d="M42.987 33.55h-5.013a9.088 9.088 0 01-5.599-2.403l-.564-.564a9.087 9.087 0 01-2.319-5.598V19.97a3.301 3.301 0 00-3.28-3.28H21.2a9.024 9.024 0 01-5.599-2.256l-.563-.564a9.087 9.087 0 01-2.32-5.599V3.28A3.28 3.28 0 009.439 0h-5.87a3.28 3.28 0 00-3.28 3.28v5.87a3.28 3.28 0 003.28 3.28H8.56a9.087 9.087 0 015.682 2.34l.564.563a9.15 9.15 0 012.318 5.599v5.014a3.3 3.3 0 003.28 3.28h5.014a9.15 9.15 0 015.536 2.318l.564.564a9.15 9.15 0 012.319 5.599v5.013a3.3 3.3 0 003.28 3.28h5.89a3.3 3.3 0 003.28-3.28v-5.89a3.301 3.301 0 00-3.3-3.28zm-23.43-20.333h5.061a9.378 9.378 0 015.652 2.294l.19.206a8.897 8.897 0 012.34 5.539v4.94c0 .86.35 1.685.97 2.294.62.608 1.463.95 2.341.95h5.926c.878 0 1.72-.342 2.341-.95.621-.609.97-1.434.97-2.295v-5.807c0-.86-.349-1.686-.97-2.294a3.346 3.346 0 00-2.341-.95h-5.04a9.272 9.272 0 01-5.652-2.295l-.21-.186a8.96 8.96 0 01-2.342-5.538v-4.96c0-.86-.348-1.686-.97-2.295a3.346 3.346 0 00-2.34-.95h-5.926c-.878 0-1.72.342-2.341.95a3.212 3.212 0 00-.97 2.295v5.807c0 .86.349 1.686.97 2.294a3.34 3.34 0 002.34.95zm1.482 19.566h5.04c.878 0 1.72.342 2.341.95.621.61.97 1.434.97 2.295v5.807c0 .86-.349 1.686-.97 2.295-.62.608-1.463.95-2.34.95h-5.905c-.437.003-.87-.08-1.274-.241a3.317 3.317 0 01-1.081-.702 3.241 3.241 0 01-.724-1.055 3.188 3.188 0 01-.253-1.247v-4.939a8.897 8.897 0 00-2.341-5.539l-.19-.206a9.378 9.378 0 00-5.652-2.294H3.6c-.878 0-1.72-.342-2.341-.95a3.212 3.212 0 01-.97-2.295v-5.807c0-.86.349-1.686.97-2.295a3.345 3.345 0 012.341-.95h6.03a3.343 3.343 0 012.259.971c.597.597.936 1.397.947 2.232v4.96a8.958 8.958 0 002.34 5.58l.211.186a9.271 9.271 0 005.652 2.294z" fill="#BDBDBD"/><path d="M74.778 18.044c-1.12 0-1.68-.56-1.68-1.68v-3.318c0-1.12-.56-1.68-1.68-1.68H65.79c-1.12 0-1.68.56-1.68 1.68v6.678c0 1.12.56 1.68 1.68 1.68h6.888c.812 0 1.498.28 2.058.84l1.344 1.344c.56.56.84 1.246.84 2.058v8.484a2.94 2.94 0 01-.84 2.1l-1.344 1.344c-.56.56-1.246.84-2.058.84h-8.106c-.812 0-1.498-.28-2.058-.84l-1.386-1.386c-.56-.56-.84-1.246-.84-2.058v-4.116c0-1.12.56-1.68 1.68-1.68h.462c1.12 0 1.68.56 1.68 1.68v2.898c0 1.12.56 1.68 1.68 1.68h5.628c1.12 0 1.68-.56 1.68-1.68v-6.048c0-1.12-.56-1.68-1.68-1.68h-6.846c-.84 0-1.54-.28-2.1-.84L61.128 23c-.56-.56-.84-1.246-.84-2.058v-9.114c0-.812.28-1.512.84-2.1l1.344-1.344c.56-.56 1.246-.84 2.058-.84h8.148c.812 0 1.498.294 2.058.882L76.08 9.77c.56.56.84 1.246.84 2.058v4.536c0 1.12-.56 1.68-1.68 1.68h-.462zm8.026 20.412c-1.12 0-1.68-.56-1.68-1.68V10.022c0-1.12.56-1.68 1.68-1.68h.462c1.12 0 1.68.56 1.68 1.68v5.964c0 1.12.56 1.68 1.68 1.68h3.864c.812 0 1.498.28 2.058.84l1.386 1.386c.56.56.84 1.246.84 2.058v14.826c0 1.12-.56 1.68-1.68 1.68h-.462c-1.12 0-1.68-.56-1.68-1.68V23.168c0-1.12-.56-1.68-1.68-1.68h-2.646c-1.12 0-1.68.56-1.68 1.68v13.608c0 1.12-.56 1.68-1.68 1.68h-.462zM112.27 19.85c.56.588.84 1.288.84 2.1v12.18a2.94 2.94 0 01-.84 2.1l-1.344 1.344c-.56.56-1.246.84-2.058.84h-5.208c-.812 0-1.498-.28-2.058-.84l-1.386-1.386c-.56-.56-.84-1.246-.84-2.058V21.95c0-.812.28-1.498.84-2.058l1.386-1.386c.56-.56 1.246-.84 2.058-.84h5.208c.812 0 1.498.28 2.058.84l1.344 1.344zm-2.982 3.318c0-1.12-.56-1.68-1.68-1.68h-2.73c-1.12 0-1.68.56-1.68 1.68v9.744c0 1.12.56 1.68 1.68 1.68h2.73c1.12 0 1.68-.56 1.68-1.68v-9.744zm10.196-4.662c.56-.56 1.26-.84 2.1-.84h3.864c1.12 0 1.68-.56 1.68-1.68V9.938c0-1.12.56-1.68 1.68-1.68h.462c1.12 0 1.68.56 1.68 1.68v26.796c0 1.12-.56 1.68-1.68 1.68h-7.686c-.812 0-1.498-.28-2.058-.84l-1.386-1.386c-.56-.56-.84-1.246-.84-2.058V21.908c0-.812.28-1.498.84-2.058l1.344-1.344zm1.638 14.406c0 1.12.56 1.68 1.68 1.68h2.646c1.12 0 1.68-.56 1.68-1.68v-9.744c0-1.12-.56-1.68-1.68-1.68h-2.646c-1.12 0-1.68.56-1.68 1.68v9.744zm18.304 5.46c-.812 0-1.498-.28-2.058-.84l-1.386-1.386c-.56-.56-.84-1.246-.84-2.058v-4.872c0-.42.07-.784.21-1.092.14-.336.364-.658.672-.966l1.344-1.344c.56-.56 1.246-.84 2.058-.84h3.99c1.12 0 1.68-.56 1.68-1.68v-.126c0-1.12-.56-1.68-1.68-1.68h-6.468c-1.12 0-1.68-.56-1.68-1.68v-.462c0-1.12.56-1.68 1.68-1.68h7.686c.812 0 1.498.28 2.058.84l1.386 1.386c.56.56.84 1.246.84 2.058v14.742c0 1.12-.56 1.68-1.68 1.68h-7.812zm5.67-8.274c0-1.12-.56-1.68-1.68-1.68h-2.772c-1.12 0-1.68.56-1.68 1.68v3.15c0 1.12.56 1.68 1.68 1.68h2.772c1.12 0 1.68-.56 1.68-1.68v-3.15zm12.704 6.678c0 1.12-.56 1.68-1.68 1.68h-.462c-1.12 0-1.68-.56-1.68-1.68V21.95c0-.812.28-1.498.84-2.058l1.386-1.386c.56-.56 1.246-.84 2.058-.84h5.208c.812 0 1.498.294 2.058.882l1.344 1.344c.56.56.84 1.246.84 2.058v14.826c0 1.12-.56 1.68-1.68 1.68h-.42c-1.12 0-1.68-.56-1.68-1.68V23.168c0-1.12-.56-1.68-1.68-1.68h-2.772c-1.12 0-1.68.56-1.68 1.68v13.608z" fill="#BDBDBD"/></svg>